<svg xmlns="http://www.w3.org/2000/svg" width="40" height="40" viewBox="0 0 40 40">
    <g fill="#9C9BA2" fill-rule="nonzero">
        <path d="M17.118 21.277a2.802 2.802 0 0 0 .773-1.933 2.816 2.816 0 0 0-2.813-2.813c-1.548 0-2.86 1.25-2.86 2.813 0 .725.284 1.41.798 1.937-1.294.715-2.204 2.081-2.204 3.688v.703c0 .388.315.703.704.703h7.078a.703.703 0 0 0 .703-.703v-.703c0-1.587-.88-2.972-2.18-3.692zm-2.04-3.34a1.408 1.408 0 0 1 0 2.813c-.788 0-1.453-.644-1.453-1.406 0-.763.665-1.407 1.453-1.407zm-2.86 7.032c0-1.551 1.283-2.813 2.86-2.813a2.816 2.816 0 0 1 2.813 2.813h-5.672z"/>
        <path d="M31.297 16.531H27.78V8.703A.703.703 0 0 0 27.078 8H8.703A.703.703 0 0 0 8 8.703v19.781A3.52 3.52 0 0 0 11.516 32h17.672A2.816 2.816 0 0 0 32 29.187V17.235a.703.703 0 0 0-.703-.703zM11.516 30.594a2.112 2.112 0 0 1-2.11-2.11V9.406h16.969v19.781c0 .513.138.993.378 1.407H11.516zm19.078-1.407a1.408 1.408 0 0 1-2.813 0v-11.25h2.813v11.25z"/>
        <path d="M24.266 24.969h-2.86a.703.703 0 0 0 0 1.406h2.86a.703.703 0 0 0 0-1.406zM24.266 27.781h-12.75a.703.703 0 0 0 0 1.407h12.75a.703.703 0 0 0 0-1.407zM24.266 16.531h-2.86a.703.703 0 0 0 0 1.407h2.86a.703.703 0 0 0 0-1.407zM24.266 19.344h-2.86a.703.703 0 0 0 0 1.406h2.86a.703.703 0 0 0 0-1.406zM24.266 22.156h-2.86a.703.703 0 0 0 0 1.407h2.86a.703.703 0 0 0 0-1.407zM24.266 10.813h-12.75a.703.703 0 0 0-.704.703v2.859c0 .388.315.703.704.703h12.75a.703.703 0 0 0 .703-.703v-2.86a.703.703 0 0 0-.703-.703zm-.703 2.859H12.219v-1.453h11.344v1.453z"/>
    </g>
</svg>
