<svg xmlns="http://www.w3.org/2000/svg" width="40" height="40" viewBox="0 0 40 40">
    <g fill="#9C9BA2" fill-rule="nonzero">
        <path d="M19.953 8C13.347 8 8 13.346 8 19.953 8 26.511 13.298 32 19.953 32 26.537 32 32 26.576 32 19.953 32 13.291 26.504 8 19.953 8zm0 22.603c-5.815 0-10.556-4.783-10.556-10.65 0-5.815 4.74-10.556 10.556-10.556 5.867 0 10.65 4.74 10.65 10.556 0 5.867-4.783 10.65-10.65 10.65z"/>
        <path d="M21.041 19.953l2.316-2.315a.703.703 0 0 0-.995-.995l-2.812 2.813a.703.703 0 0 0 0 .994l2.812 2.813a.703.703 0 0 0 .995-.995l-2.316-2.315z"/>
        <path d="M19.953 10.813c-5.035 0-9.14 4.096-9.14 9.14 0 5.06 4.118 9.235 9.14 9.235 5.039 0 9.235-4.18 9.235-9.235 0-5.019-4.172-9.14-9.235-9.14zm5.98 14.126l-.417-.417a.703.703 0 1 0-.994.994l.417.418a7.805 7.805 0 0 1-4.283 1.814v-.67a.703.703 0 0 0-1.406 0v.67a7.652 7.652 0 0 1-4.232-1.772l.46-.46a.703.703 0 1 0-.994-.994l-.456.456a7.844 7.844 0 0 1-1.778-4.322h.672a.703.703 0 0 0 0-1.406h-.671a7.7 7.7 0 0 1 1.761-4.243l.472.471a.703.703 0 0 0 .994-.994l-.471-.472a7.7 7.7 0 0 1 4.243-1.761v.67a.703.703 0 0 0 1.406 0v-.67a7.843 7.843 0 0 1 4.322 1.777l-.456.456c-.445.444-.124 1.2.497 1.2a.7.7 0 0 0 .497-.206l.46-.46a7.651 7.651 0 0 1 1.773 4.232h-.67a.703.703 0 0 0 0 1.406h.669a7.805 7.805 0 0 1-1.814 4.283z"/>
    </g>
</svg>
