<svg xmlns="http://www.w3.org/2000/svg" width="40" height="40" viewBox="0 0 40 40">
    <g fill="#9C9BA2" fill-rule="nonzero">
        <path d="M28.438 8H15.78a3.516 3.516 0 0 0-3.515 3.509v13.38H8.703A.702.702 0 0 0 8 25.59v.701c0 1.562 1.314 2.807 2.86 2.807h8.437v2.152a.702.702 0 0 0 1.204.493l2.311-2.346 2.312 2.346a.704.704 0 0 0 1.204-.493V29.03a3.516 3.516 0 0 0 2.813-3.438V12.21h2.156a.704.704 0 0 0 .703-.702C32 9.569 30.381 8 28.437 8zM10.858 27.696c-.787 0-1.453-.643-1.453-1.404h2.86c0 .774-.631 1.404-1.407 1.404zm14.063 1.841l-1.608-1.631a.704.704 0 0 0-1.003 0l-1.608 1.631V25.59a3.502 3.502 0 0 0 2.11.703c.79 0 1.52-.262 2.109-.703v3.948zm-2.11-4.648a2.11 2.11 0 0 1-2.109-2.105 2.11 2.11 0 0 1 4.219 0 2.11 2.11 0 0 1-2.11 2.105zm4.922.702c0 .914-.587 1.695-1.406 1.984v-4.791a3.516 3.516 0 0 0-3.515-3.51h-5.625a.698.698 0 1 0 0 1.399h2.814a3.5 3.5 0 0 0-.705 2.11v4.913h-6.004c.24-.413.379-.892.379-1.404V11.51a2.11 2.11 0 0 1 4.219 0c0 .387.314.702.703.702h9.14v13.38zm-8.508-14.784a3.491 3.491 0 0 0-.634-1.403h9.846c.918 0 1.724.595 2.028 1.403h-11.24z"/>
        <path d="M24.219 16.421h-7.032a.702.702 0 1 0 0 1.404h7.032a.702.702 0 1 0 0-1.404zM24.219 13.614h-7.032a.702.702 0 1 0 0 1.404h7.032a.702.702 0 1 0 0-1.404z"/>
    </g>
</svg>
