<svg xmlns="http://www.w3.org/2000/svg" width="40" height="40" viewBox="0 0 40 40">
    <g fill="#9C9BA2" fill-rule="nonzero">
        <path d="M19.953 8C13.347 8 8 13.346 8 19.953 8 26.511 13.298 32 19.953 32 26.546 32 32 26.567 32 19.953 32 13.291 26.504 8 19.953 8zm0 22.603c-5.815 0-10.556-4.783-10.556-10.65 0-5.815 4.74-10.556 10.556-10.556 5.867 0 10.65 4.74 10.65 10.556 0 5.867-4.783 10.65-10.65 10.65z"/>
        <path d="M19.953 12.219c-4.265 0-7.734 3.47-7.734 7.734 0 4.28 3.462 7.828 7.734 7.828 1.729 0 3.477-.58 4.797-1.594a.703.703 0 1 0-.856-1.115c-1.08.828-2.516 1.312-3.94 1.312-3.49 0-6.329-2.89-6.329-6.43 0-3.49 2.839-6.338 6.328-6.338 3.541 0 6.422 2.848 6.422 6.337v.703c0 .776-.63 1.407-1.406 1.407-.776 0-1.407-.631-1.407-1.407v-3.515a.703.703 0 0 0-1.406 0v.044a3.623 3.623 0 0 0-2.203-.747 3.52 3.52 0 0 0-3.515 3.515 3.52 3.52 0 0 0 3.515 3.516 3.64 3.64 0 0 0 2.706-1.21 2.81 2.81 0 0 0 5.122-1.603v-.703c0-4.277-3.552-7.734-7.828-7.734zm0 9.853a2.12 2.12 0 0 1 0-4.238c1.194 0 2.203.976 2.203 2.12 0 1.143-1.009 2.118-2.203 2.118z"/>
    </g>
</svg>
