<svg xmlns="http://www.w3.org/2000/svg" width="40" height="40" viewBox="0 0 40 40">
    <g fill="#9C9BA2" fill-rule="nonzero">
        <path d="M27.981 15.59c.303.25.754.21 1.007-.086l1.836-2.155a.696.696 0 0 0-.088-.99l-2.189-1.808a.722.722 0 0 0-1.006.086l-1.836 2.155a.696.696 0 0 0 .088.99l.547.452-.938 1.101a9.317 9.317 0 0 0-3.26-1.464V12.22h.715a.709.709 0 0 0 .714-.703V8.703A.709.709 0 0 0 22.857 8h-5.714a.709.709 0 0 0-.714.703v2.813c0 .388.32.703.714.703h.714v1.652a9.317 9.317 0 0 0-3.259 1.464l-.938-1.1.547-.453a.696.696 0 0 0 .088-.99l-1.836-2.155a.722.722 0 0 0-1.006-.086l-2.19 1.807a.696.696 0 0 0-.087.991l1.836 2.154a.722.722 0 0 0 1.007.087l.547-.452.939 1.102c-1.721 1.66-2.79 3.972-2.79 6.526C10.714 27.806 14.852 32 20 32c5.154 0 9.286-4.2 9.286-9.234 0-2.554-1.07-4.866-2.79-6.526l.938-1.102.547.452zm-16.333-1.53l-.919-1.076 1.095-.904.918 1.077-1.094.904zm6.21-4.654h4.285v1.406h-4.286V9.406zm2.856 2.813v1.433a9.53 9.53 0 0 0-1.428 0v-1.433h1.428zm7.143 10.547c0 4.316-3.525 7.828-7.857 7.828-4.332 0-7.857-3.512-7.857-7.828 0-4.265 3.525-7.735 7.857-7.735 4.332 0 7.857 3.47 7.857 7.735zm.32-10.686l1.094.904-.919 1.077-1.094-.904.918-1.077z"/>
        <path d="M25.714 22.063h-5V17.14a.709.709 0 0 0-.714-.703c-3.545 0-6.429 2.838-6.429 6.328 0 3.486 2.872 6.422 6.429 6.422 3.56 0 6.429-2.938 6.429-6.422a.709.709 0 0 0-.715-.703zM20 27.78c-2.71 0-5-2.297-5-5.015 0-2.476 1.866-4.53 4.286-4.872v4.872c0 .388.32.703.714.703h4.949c-.353 2.4-2.476 4.312-4.949 4.312z"/>
    </g>
</svg>
