<svg xmlns="http://www.w3.org/2000/svg" width="32" height="32" viewBox="0 0 32 32">
    <path fill="#0077B5" fill-rule="evenodd" d="M6.232 24.964h4.125V12.571H6.232v12.393zM10.625 8.75c-.012-.62-.226-1.131-.643-1.536-.417-.404-.97-.607-1.66-.607-.691 0-1.254.203-1.688.607-.435.405-.652.917-.652 1.536 0 .607.211 1.116.634 1.527.423.41.973.616 1.652.616h.018c.702 0 1.268-.205 1.696-.616.429-.41.643-.92.643-1.527zm6.125 5.568v.057h-.036l.036-.057zm0 0v-1.747h-4.125c.036.786.036 4.917 0 12.393h4.125v-6.928c0-.453.042-.786.125-1 .179-.417.446-.771.804-1.063.357-.291.797-.437 1.321-.437 1.381 0 2.071.934 2.071 2.803v6.625h4.125v-7.107c0-1.833-.434-3.22-1.303-4.16-.87-.941-2.018-1.411-3.447-1.411-1.597 0-2.829.677-3.696 2.032zm12.679-7.175v17.143c0 1.416-.503 2.628-1.51 3.634-1.005 1.006-2.217 1.509-3.633 1.509H7.143c-1.417 0-2.628-.503-3.634-1.51C2.503 26.915 2 25.703 2 24.287V7.143c0-1.417.503-2.628 1.509-3.634C4.515 2.503 5.726 2 7.143 2h17.143c1.416 0 2.628.503 3.634 1.509 1.006 1.006 1.509 2.217 1.509 3.634z"/>
</svg>
