<svg xmlns="http://www.w3.org/2000/svg" width="40" height="40" viewBox="0 0 40 40">
    <g fill="#9C9BA2" fill-rule="nonzero">
        <path d="M20.5 8c-4.687 0-8.5 3.785-8.5 8.438 0 1.571.439 3.105 1.269 4.436l6.747 10.794a.71.71 0 0 0 .602.332h.006a.71.71 0 0 0 .602-.342L27.8 20.76A8.38 8.38 0 0 0 29 16.437C29 11.785 25.187 8 20.5 8zm6.085 12.038l-5.978 9.908-6.134-9.813a6.984 6.984 0 0 1-1.066-3.695c0-3.878 3.187-7.041 7.093-7.041s7.088 3.163 7.088 7.04c0 1.272-.35 2.517-1.003 3.601z"/>
        <path d="M20.5 12.219c-2.343 0-4.25 1.892-4.25 4.219a4.229 4.229 0 0 0 4.25 4.218 4.226 4.226 0 0 0 4.25-4.218c0-2.327-1.907-4.22-4.25-4.22zm0 7.04c-1.57 0-2.843-1.267-2.843-2.822 0-1.55 1.28-2.821 2.843-2.821 1.562 0 2.838 1.27 2.838 2.822a2.829 2.829 0 0 1-2.838 2.821z"/>
    </g>
</svg>
