<svg xmlns="http://www.w3.org/2000/svg" width="40" height="40" viewBox="0 0 40 40">
    <path fill="#9C9BA2" fill-rule="nonzero" d="M29.81 21.57a2.802 2.802 0 0 0 .784-1.945 2.816 2.816 0 0 0-2.813-2.813 2.816 2.816 0 0 0-2.812 2.813c0 .754.299 1.44.784 1.945a4.316 4.316 0 0 0-1.196 1.015 4.972 4.972 0 0 0-2.253-2.398 3.472 3.472 0 0 0 1.259-2.671C23.563 15.572 21.942 14 20 14c-1.944 0-3.563 1.572-3.563 3.516 0 1.02.444 1.983 1.259 2.671a4.972 4.972 0 0 0-2.253 2.398 4.317 4.317 0 0 0-1.196-1.015 2.802 2.802 0 0 0 .784-1.945 2.816 2.816 0 0 0-2.812-2.813 2.816 2.816 0 0 0-2.813 2.813c0 .754.3 1.44.785 1.945A4.363 4.363 0 0 0 8 25.344v.703c0 .388.315.703.703.703h22.594a.703.703 0 0 0 .703-.703v-.703a4.363 4.363 0 0 0-2.19-3.774zM12.218 18.22c.775 0 1.406.63 1.406 1.406 0 .775-.63 1.406-1.406 1.406-.776 0-1.406-.63-1.406-1.406 0-.775.63-1.406 1.406-1.406zm-2.813 7.125c0-1.576 1.288-2.907 2.813-2.907 1.524 0 2.812 1.331 2.812 2.907H9.406zM20 15.406c1.169 0 2.156.966 2.156 2.11 0 1.143-.987 2.109-2.156 2.109s-2.156-.966-2.156-2.11c0-1.143.987-2.109 2.156-2.109zm3.563 9.938h-7.125v-.797c0-1.939 1.598-3.516 3.562-3.516 1.964 0 3.563 1.577 3.563 3.516v.797zm4.218-7.125c.776 0 1.407.63 1.407 1.406a1.408 1.408 0 0 1-2.813 0c0-.775.63-1.406 1.406-1.406zm-2.812 7.125c0-1.576 1.288-2.907 2.812-2.907 1.525 0 2.813 1.331 2.813 2.907h-5.625z"/>
</svg>
