<svg xmlns="http://www.w3.org/2000/svg" width="40" height="40" viewBox="0 0 40 40">
    <g fill="#9C9BA2" fill-rule="nonzero">
        <path d="M30.221 25.708l-2.984-2.984a2.109 2.109 0 0 0-2.983 0l-1.357 1.357a1.597 1.597 0 0 1-2.26 0v-.001l-4.717-4.7a1.597 1.597 0 0 1 0-2.261l1.356-1.357a2.109 2.109 0 0 0 0-2.983l-2.984-2.984a2.109 2.109 0 0 0-2.984 0l-.994.995c-2.902 2.678-3.231 7.709-.09 10.85l8.153 8.137c2.84 2.84 7.644 3.115 10.85-.09l.994-.995a2.112 2.112 0 0 0 0-2.984zM12.303 10.79a.704.704 0 0 1 .995 0l2.983 2.983a.703.703 0 0 1 0 .995l-.497.497-3.978-3.978.497-.497zm7.068 17.992l-8.153-8.137a6.21 6.21 0 0 1-.388-8.345l3.964 3.964a3.002 3.002 0 0 0 .132 4.11l4.717 4.701a3.002 3.002 0 0 0 4.109.131l3.964 3.964a6.198 6.198 0 0 1-8.345-.388zm9.856-1.085l-.498.498-3.978-3.979.497-.497a.703.703 0 0 1 .995 0l2.984 2.984a.704.704 0 0 1 0 .994z"/>
        <path d="M29.89 8h-8.439c-1.163 0-2.11.947-2.11 2.11v5.626c0 1.164.947 2.11 2.11 2.11h.703v2.11c0 .625.76.939 1.2.497l2.608-2.607h3.928c1.164 0 2.11-.946 2.11-2.11V10.11C32 8.947 31.054 8 29.89 8zm.704 7.736a.704.704 0 0 1-.704.704h-4.22a.703.703 0 0 0-.497.206l-1.612 1.612v-1.115a.703.703 0 0 0-.703-.703H21.45a.704.704 0 0 1-.703-.704V10.11c0-.388.315-.703.703-.703h8.44c.387 0 .703.315.703.703v5.626z"/>
        <path d="M28.484 10.813h-5.626a.703.703 0 1 0 0 1.407h5.626a.703.703 0 1 0 0-1.407zM25.67 13.627h-2.812a.703.703 0 1 0 0 1.406h2.813a.703.703 0 1 0 0-1.406z"/>
    </g>
</svg>
