<?xml version="1.0" encoding="UTF-8" standalone="no"?>
<svg width="20px" height="20px" viewBox="0 0 20 20" version="1.1" xmlns="http://www.w3.org/2000/svg" xmlns:xlink="http://www.w3.org/1999/xlink">
    <!-- Generator: Sketch 48.2 (47327) - http://www.bohemiancoding.com/sketch -->
    <title>search</title>
    <desc>Created with Sketch.</desc>
    <defs></defs>
    <g id="Page-1" stroke="none" stroke-width="1" fill="none" fill-rule="evenodd">
        <g id="search" fill="#FFFFFF" fill-rule="nonzero">
            <path d="M14.294,12.579 L13.391,12.579 L13.071,12.269 C14.2299979,10.9244697 14.8670646,9.20811598 14.866,7.433 C14.866,3.32786745 11.5381325,-1.33226763e-15 7.433,-1.77635684e-15 C3.32786745,-1.99840144e-15 -1.33226763e-15,3.32786745 -1.77635684e-15,7.433 C-1.99840144e-15,11.5381325 3.32786745,14.866 7.433,14.866 C9.20858799,14.8670266 10.9253521,14.2295843 12.27,13.07 L12.579,13.39 L12.579,14.294 L18.296,20 L20,18.296 L14.294,12.579 Z M7.433,12.579 C6.06762625,12.5808611 4.75763941,12.0392925 3.79217348,11.0738265 C2.82670755,10.1083606 2.28513891,8.79837375 2.287,7.433 C2.28513891,6.06762625 2.82670755,4.75763941 3.79217348,3.79217348 C4.75763941,2.82670755 6.06762625,2.28513891 7.433,2.287 C8.79837375,2.28513891 10.1083606,2.82670755 11.0738265,3.79217348 C12.0392925,4.75763941 12.5808611,6.06762625 12.579,7.433 C12.5808611,8.79837375 12.0392925,10.1083606 11.0738265,11.0738265 C10.1083606,12.0392925 8.79837375,12.5808611 7.433,12.579 Z" id="Shape"></path>
        </g>
    </g>
</svg>