<svg xmlns="http://www.w3.org/2000/svg" width="976" height="1125" viewBox="0 0 976 1125">
    <g fill="none" fill-rule="evenodd">
        <path fill="#D1F8EF" d="M92.533 726.352c-143.5-60.285 158-148.1 185.5-173.886C305.533 526.679 305.5 330.152 499 342c193.5 11.848 256 111.5 139.5 210.466C522 651.43 964.467 738 828 878.5 691.533 1019 236.033 786.638 92.533 726.352z"/>
        <rect width="231" height="23" x="242" y="125" fill="#D1F8EF" rx="2"/>
        <rect width="167" height="23" x="219" y="207" fill="#D6ECFF" rx="2"/>
        <rect width="90" height="23" x="410" y="207" fill="#D6ECFF" rx="2"/>
        <rect width="200" height="23" x="512" y="207" fill="#D6ECFF" rx="2"/>
        <rect width="200" height="23" x="363" y="247" fill="#BCB2E3" rx="2"/>
        <rect width="231" height="23" x="281" y="166" fill="#FFACB9" rx="2"/>
        <rect width="90" height="23" x="535" y="166" fill="#FF8297" rx="2"/>
        <path fill="#83C7FF" d="M511.5 460l87.334 31.589 34.784-52.812 16.748 140.402-11.595 284.025h16.104l44.447-227.993L722.512 869h16.748l12.883-273.72-10.307-156.503 50.245 43.151-45.091 42.507 1.288 17.39L823 488.369l-81.164-93.387L633.618 371.5 584.5 464l-67-12.5z"/>
        <g stroke="#080617" stroke-linecap="square">
            <path d="M743.6 395.459L628.5 372.5M743.597 869.982h-22.28M659.783 865.635l-23.556-2.899M634.5 369.5l-45 97M636.5 438.5l-40.069 52.102M602.5 491.5l-91-32M590.5 465.5l-74-14M519.5 450.5l-7.257 10.246M730.335 383.492L823.543 489.5M739.367 437.602l58.383 48.029M725.176 544.895l67.424-64.787M734.205 551.335l88.047-62.208M739.732 552.63l-11.972-17.134M635.5 429.5l13.968 150.175M698.47 635.985l-45.488 234.827M650.768 574.15l-11.972 295.374M698.098 628.255l24.689 246.236M760.363 600.284l-118.805-22.083M748.39 540.66l5.525 71.216M741.998 435.022l4.126 87.97M750.508 596.05l-12.25 282.306"/>
        </g>
        <path fill="#A2F1DF" d="M660.513 280.598l59.624 15.976-3.677 79.062-51.456-13.787z"/>
        <path fill="#30A1FF" d="M718.23 328.951l.804-33.13-60.278-15.03-16.862-18.685 87.536 21.928z"/>
        <path fill="#9A8BD6" d="M253.5 696.5l42-112-165.5-11 9.5-81.5-19.5-10.5 37.5-97 58-12.5 44 115 65.5 31.5-3.5 5.5-73-21.5-39.5-87-12 91 25.5 17.5-4.5 10.25-21-13.75-4 13.75 153.5 27.25 16.5 135-9.5 4-34-93.5-52.5 89.5z"/>
        <g>
            <path stroke="#080617" stroke-linecap="square" d="M145.5 387.5l74-16M246.5 696.5h24M345.5 701.5l25-3M213.5 366.5l46 122M208.5 413.5l40 89M258.5 484.5l71 36M327.5 526.5l-81-25M160.5 375.5l-43 112M169.5 418.5l-30 54M223.5 525.5l-87-62M222.5 535.5l-111-58M217.5 533.5l7-15M320.5 526.5l6-12"/>
            <path stroke="#7965C8" stroke-linecap="round" stroke-width="5" d="M256.5 535.5l96 16 33-70"/>
            <path stroke="#080617" stroke-linecap="square" d="M216.5 369.375l-20 138.125M195.5 521.5l-3 14M345.5 555.5l19 147M310.5 582.5l45 123M190.5 535.5l160 26M319.5 607.5l-56 93M253.5 697.5l42-111M125.5 549.5l69-28M314.5 586.5l-184-12M139.5 492.5l-7 69M136.5 545.5l-4 36"/>
        </g>
        <g>
            <path fill="#A2F1DF" d="M215.922 303.919l-10.333 62.937-42.576 6.423 3.575-61.917z"/>
            <path fill="#9A8BD6" d="M165.53 337.7l-5.402-36.518 71.822-9.654-14.982 13.3-49.452 6.592z"/>
        </g>
        <path fill="#CECDD1" d="M302 699c17.333-73.333-2.833-112.167-60.5-116.5-86.5-6.5-68.5-5-127-5S13 697.5 53 699c26.667 1 109.667 1 249 0z"/>
    </g>
</svg>
