<?xml version="1.0" encoding="utf-8"?>
<!-- Generator: Adobe Illustrator 19.2.1, SVG Export Plug-In . SVG Version: 6.00 Build 0)  -->
<svg version="1.1" id="Слой_1" xmlns="http://www.w3.org/2000/svg" xmlns:xlink="http://www.w3.org/1999/xlink" x="0px" y="0px"
	 viewBox="0 0 787.3 767.3" style="enable-background:new 0 0 787.3 767.3;" xml:space="preserve">
<style type="text/css">
	.st0{fill:#D1F8EF;}
	.st1{fill:#83C7FF;}
	.st2{fill:none;stroke:#080617;stroke-width:1.426;stroke-linecap:square;}
	.st3{fill:#A2F1DF;}
	.st4{fill:#30A1FF;}
</style>
<g>
	<path class="st0" d="M43.1,750c-143.5-53.1,86.7-534.4,465.5-588.3c378.8-53.9,298.5,50.1,182,137.3
		c-116.5,87.2-74,307.3,20.5,365.3C805.6,722.3,186.6,803.1,43.1,750L43.1,750z"/>
	<path class="st1" d="M400.9,331.6l38.5-77l-38.5-98.4l-18.5,195.3l12.8,314.4h-17.8l-49.2-252.3l-25.7,258.8h-18.5l-14.3-303
		l11.4-173.2l-55.6,47.8l49.9,47l-1.4,19.2L191.2,251l89.9-103.4L423,115.6l42.8,149.7l-52.1,71.3L400.9,331.6z"/>
	<g>
		<path class="st2" d="M278.7,148.6L421.6,117 M278.7,673.8h24.6 M371.5,668.9l26.1-3.2 M421.6,115.6l45.6,154 M395.9,139.8
			l45.6,114.1 M405.9,343.7l64.2-85.5 M440.1,253.9L395.9,338 M394.5,329.5l24.5,7.9 M293.4,135.4L190.3,252.7 M283.4,195.2
			l-64.6,53.2 M299.1,314l-74.6-71.7 M289.1,321.1l-97.4-68.8 M283,322.5l13.2-19 M403,149.8l-20.2,202.6 M328.7,414.8L379,674.7
			 M381.4,346.4l13.2,326.9 M329.1,406.2l-27.3,272.5 M260.2,375.3l131.4-24.4 M273.4,309.3l-6.1,78.8 M280.5,192.4l-4.6,97.4
			 M271.1,370.6L284.6,683"/>
	</g>
	<path class="st3" d="M370.9,20.5l-66,17.7l4.1,87.5l56.9-15.3L370.9,20.5z"/>
	<path class="st4" d="M307,74l-0.9-36.7l66.7-16.6L391.5,0l-96.9,24.3L307,74z"/>
</g>
</svg>
