<svg xmlns="http://www.w3.org/2000/svg" width="976" height="1125" viewBox="0 0 976 1125">
    <g fill="none" fill-rule="evenodd">
        <path fill="#D1F8EF" d="M883.717 420.648c143.5 60.285-158 148.1-185.5 173.886-27.5 25.787-220 289.927-413.5 278.08-193.5-11.849-298.5-56.801-182-155.767 116.5-98.965 207.5-133.115 113-198.976-94.5-65.861 524.5-157.509 668-97.223z"/>
        <path fill="#83C7FF" d="M720 268.5l9.5 120-136 7-25 211 11 306L563 915l-47.5-249-22 107.5L444 924h-17l33.5-163.5L457 628l10-173.5-52.5 42.5 47.5 46.5-1.5 19-79-54.5L472 401l103-45 130 11 4-98.5z"/>
        <path fill="#CECDD1" d="M281 490l27-54-27-69-13 137 9 220.5h-12.5l-34.5-177L212 729h-13l-10-212.5 8-121.5-39 33.5 35 33-1 13.5-58-41.5 63-72.5 99.5-22.5 30 105-36.5 50z"/>
        <g transform="translate(379 131)">
            <path stroke="#FFACB9" stroke-linecap="round" stroke-linejoin="round" stroke-width="6" d="M17.5 255l193-87.5 77-20 89-48H426l105.5-94L564 0"/>
            <circle cx="210" cy="168" r="7" fill="#FF8297"/>
            <circle cx="288" cy="148" r="7" fill="#FF8297"/>
            <circle cx="376" cy="100" r="7" fill="#FF8297"/>
            <circle cx="427" cy="100" r="7" fill="#FF8297"/>
            <circle cx="533" cy="7" r="7" fill="#FF8297"/>
            <path stroke="#080617" stroke-linecap="square" d="M87.5 273.5l115-51M44.5 792.5h24M178.5 785.5l25-3M184.5 224.5l144 11M214.5 263.5l140-6M325.5 241.5l5-118M351.5 264.5l-11-129M322.5 136.52h29M102.5 261.5l-102 116M91.5 319.5l-63 52M108.5 436.5l-74-71M98.5 443.5l-96-68M91.5 445.5l13-19M214.5 257.5l-25 217M136.5 535.5l49 256M188.5 468.5l13 322M137.5 527.5l-26 127M60.5 801.5l57-169M69.5 496.5l142-27M47.5 798.5l34-179M82.5 431.5l-6 77M88.5 317.5l-4 96M80.5 492.5v151"/>
            <path stroke="#FF5974" stroke-linecap="round" stroke-width="5" d="M319.5 147.5l42-23"/>
        </g>
        <path fill="#A2F1DF" d="M537.677 251.977l-66.69 29.692 18.336 90.354 57.554-25.625z"/>
        <path fill="#30A1FF" d="M479.439 319.926l-7.122-38.53 67.175-28.515L555.578 228l-97.532 41.528z"/>
        <g stroke="#080617" stroke-linecap="square">
            <path d="M195.358 361.644L295.5 339.5M195.36 730h17.28M260.365 726.625l18.27-2.25M295.5 338.5l32 108M277.5 355.5l32 80M284.5 498.5l45-60M308.5 435.5l-31 59M276.5 488.5l17.15 5.513M205.646 352.355l-72.292 82.29M198.64 394.358l-45.28 37.284M209.647 477.646l-52.294-50.292M202.644 482.645l-68.288-48.29M198.357 483.65l9.286-13.3M282.5 362.5l-14.135 142.144M230.36 548.356l35.28 182.288M267.357 500.356l9.286 229.288M230.648 542.355L211.5 733.5M182.357 520.643L274.5 503.5M191.643 474.359l-4.286 55.282M196.6 392.356l-3.2 68.288M190 517.355l9.5 219.145"/>
        </g>
        <path fill="#A2F1DF" d="M537.677 251.977l-66.69 29.692 18.336 90.354 57.554-25.625z"/>
        <path fill="#30A1FF" d="M479.439 319.926l-7.122-38.53 67.175-28.515L555.578 228l-97.532 41.528z"/>
        <g>
            <path fill="#A2F1DF" d="M259.955 271.762l-46.25 12.393 2.858 61.35 39.914-10.694z"/>
            <path fill="#30A1FF" d="M215.19 309.278l-.626-25.71 46.758-11.658 13.079-14.498-67.902 17.01z"/>
        </g>
    </g>
</svg>
