<svg xmlns="http://www.w3.org/2000/svg" width="976" height="1125" viewBox="0 0 976 1125">
    <g fill="none" fill-rule="evenodd">
        <path fill="#D1F8EF" d="M762.5 411c143.5 86.5 77 400 49.5 437s-45.5 247.5-239 230.5S-7 990 109.5 848s400-195.5 305.5-290 204-233.5 347.5-147z"/>
        <path fill="#FFF" d="M338 1041.125L686 758v49l-348 283.125zM263 991.125L611 708v49l-348 283.125zM423 1090.125L771 807v49l-348 283.125z"/>
        <path fill="#83C7FF" d="M566 176l89 75-42.5 170L588 647l-37 324.5-12.5-3-17-297.5L420 769l28.5 157-13 4.5-51-171L457 628l15-198.5-76.5 67.5-35.5 87.5-10.5-5.5 35-104 94-104H583l45-97.5-62-82zM236.5 815.5h7.5L222.5 589 338 605.5l-39-35 39-28-127-6.5z"/>
        <g stroke="#080617" stroke-linecap="square">
            <path d="M467.5 370.5h145.028M438.5 625.5l178 26M430.5 931.5l24-7M530.5 967.5l24 5M576.5 383.5l51-110M602.5 462.5l53-214M630.5 278.5l-68-92M658.5 253.5l-96-80M565.5 196.52V170.5M484.5 364.5l-102 116M483.5 423.5l-92 78M358.5 588.5l41-96M348.5 580.5l40-109M367.5 587.5l-26-13M613.5 402.5l-16 256M521.5 671.5l17 302M588.5 640.5l-38 333M521.5 671.5l-102 98M450.5 936.5l-31-167M438.5 625.5l178 26M438.5 940.5l-54-181M471.5 434.5l-16 205M459.5 623.5l-75 136M236.5 813.5l-24-280M244.5 818.5l-21-231M209 537.5l130 5.5-39.5 29 39.5 32.5L209 586"/>
        </g>
        <path fill="#A2F1DF" d="M467 267h73l20 90h-63z"/>
        <path fill="#30A1FF" d="M548.005 305.868l-8.5-38.25H466.53L442 251l106.005.118z"/>
    </g>
</svg>
