<svg xmlns="http://www.w3.org/2000/svg" width="1035" height="612" viewBox="0 0 1035 612">
    <g fill="none" fill-rule="evenodd" stroke="#FFF" stroke-linecap="round" stroke-linejoin="round" stroke-width="2" opacity=".08">
        <path d="M778.383 457.765L856.98 356.51l87.793 20.1-38.211 81.558z"/>
        <path d="M867.095 414.628l-99.868-80.353 21.63-87.43 80.878 39.63z"/>
        <path d="M822.237 321.537L743.64 422.792l-87.793-20.1 38.211-81.558zM1006.373 224.421l-71.344 106.492-88.982-13.928 32.43-84.024z"/>
        <path d="M822.517 97.822l102.611 76.82-18.565 88.13-82.212-36.782z"/>
        <path d="M925.615 50.533l-76.819 102.611-88.131-18.565 36.783-82.212z"/>
        <path d="M784.277 237.053l-101.255-78.598 20.1-87.793 81.558 38.211z"/>
        <path d="M700.685 274.01l80.353-99.869 87.43 21.63-39.63 80.878z"/>
        <path d="M636.088 189.204l103.937 75.017L723 352.662 640.16 317.32z"/>
        <path d="M729.604 122.192L663.932 232.27l-89.59-9.252 27.988-85.606z"/>
        <path d="M610.793 316.715L506.856 241.7l17.025-88.442 82.841 35.342z"/>
        <path d="M517.968 367.347l76.82-102.611 88.13 18.565-36.782 82.212z"/>
        <path d="M461.82 276.577l97.003 83.79-24.668 86.621-79.446-42.428z"/>
        <path d="M564.17 235.02l-83.789 97.003-86.621-24.668 42.428-79.445z"/>
        <path d="M421.568 428.13l-95.525-85.47 26.175-86.177 78.694 43.808z"/>
        <path d="M336.735 457.765l78.598-101.255 87.794 20.1-38.212 81.558z"/>
        <path d="M280.782 362.775l99.868 80.353-21.63 87.43-80.878-39.63z"/>
        <path d="M161.415 563.986l67.583-108.916 89.414 10.814-29.477 85.104z"/>
        <path d="M243.118 498.56L131.91 434.82l7.686-89.737 86.082 26.489z"/>
        <path d="M380.147 321.791L301.55 423.046l-87.793-20.1 38.211-81.558zM191.64 413.456L113.04 514.712 25.247 494.61l38.212-81.557zM730.991 362.32l98.45 82.083-23.152 87.039-80.174-41.035z"/>
    </g>
</svg>
