<svg xmlns="http://www.w3.org/2000/svg" width="82" height="32" viewBox="0 0 82 32">
    <g fill="#12638E" fill-rule="evenodd">
        <path d="M.594 19.916c.48.595.884 1.246 1.204 1.939.236.488.994.962 1.236 1.104.155.581.316 1.133.482 1.658.222.699 1.407 2.686 2.5 3.582 1.877 1.533 4.826 3.61 7.104 3.61 2.278 0 5.227-2.077 7.103-3.608 1.094-.896 2.281-2.88 2.5-3.581.138-.436.272-.89.403-1.363 0 0 1.03-.568 1.313-1.149a9.325 9.325 0 0 1 1.204-1.939c.536-.645.68-3.392.536-3.944-.335-1.333-1.308-.469-1.842.142.137-1.504.215-3.158.215-4.99C24.552 5.094 19.432 0 13.116 0S1.68 5.094 1.68 11.377c0 1.72.07 3.283.19 4.71-.536-.611-1.493-1.438-1.822-.12-.134.557.005 3.304.546 3.949zm9.197-8.552c1.504-2.541 4.975-4.824 9.456-3.733.97.236 1.806.847 2.321 1.698.516.851.67 1.871.427 2.835-.496 2.003-2.493 3.027-4.557 2.733-2.769-.394-4.02-.194-5.36.576-4.348 2.515-4.501 6.083-4.501 6.083s-1.53-3.87 2.214-10.192zM6.67 5.148c.783-.613 2.482-.533 3.286.213 2.723 2.515-.75 5.896-.75 5.896s.876-1.576-.148-2.597c-.804-.8-1.238-.688-1.815-.728-1.675-.112-1.549-2.021-.573-2.784zM32.147 14.026V5.973h2.696c.94 0 1.672.184 2.198.553.526.369.79.92.79 1.654 0 .372-.098.705-.294.998-.195.293-.48.513-.852.66.479.104.838.325 1.077.665.24.339.359.731.359 1.178 0 .77-.252 1.354-.756 1.75-.505.396-1.22.595-2.144.595h-3.074zm1.6-3.562v2.323h1.474c.424 0 .748-.093.97-.28.223-.186.335-.461.335-.826 0-.395-.095-.696-.285-.905-.19-.208-.49-.312-.899-.312h-1.595zm0-1.117h1.151c.428 0 .756-.089.987-.266.23-.177.345-.435.345-.774 0-.373-.116-.647-.348-.824-.232-.177-.578-.266-1.039-.266h-1.096v2.13zm8.589.083l-.587-.017c-.237 0-.433.05-.586.15-.154.099-.27.239-.35.42v4.043h-1.596V8.04h1.486l.07.885c.14-.313.32-.557.54-.733.222-.175.477-.262.765-.262.08 0 .155.006.222.02.068.012.136.028.206.046l-.17 1.433zm4.292 4.596a3.417 3.417 0 0 1-.151-.432 3.025 3.025 0 0 1-.09-.464c-.165.291-.382.532-.65.724-.269.192-.59.288-.962.288-.621 0-1.1-.161-1.436-.484-.336-.323-.504-.762-.504-1.32 0-.585.223-1.04.671-1.363.448-.322 1.1-.484 1.96-.484h.893v-.475c0-.288-.075-.51-.225-.67-.15-.158-.37-.237-.663-.237-.26 0-.46.063-.6.19-.14.128-.211.304-.211.529l-1.546-.006-.005-.033c-.026-.505.192-.941.652-1.308.46-.367 1.065-.55 1.814-.55.71 0 1.285.181 1.727.544.442.364.663.88.663 1.552v2.472c0 .28.021.544.063.791.042.247.109.492.2.736h-1.6zm-1.464-1.079c.281 0 .532-.07.751-.21.22-.14.367-.302.444-.487v-.846h-.893c-.34 0-.598.086-.773.257a.838.838 0 0 0-.263.622c0 .2.065.36.197.482.132.121.31.182.537.182zm5.695 1.079h-1.6V8.04h1.6v5.985zm0-7.417h-1.6V5.398h1.6v1.21zm2.779 1.432l.071.858c.197-.306.44-.544.73-.714a1.88 1.88 0 0 1 .97-.254c.599 0 1.066.19 1.402.57.337.38.505.975.505 1.786v3.739H55.71v-3.734c0-.402-.08-.686-.241-.854-.161-.168-.404-.252-.73-.252a1.175 1.175 0 0 0-.992.498v4.342h-1.6V8.04h1.49zM63.86 11.2c0 .893-.197 1.606-.592 2.14-.394.535-.965.803-1.71.803-.343 0-.644-.073-.902-.219a1.872 1.872 0 0 1-.655-.638l-.12.74h-1.37V5.399h1.595v3.28c.171-.24.377-.425.616-.554.24-.129.514-.193.825-.193.753 0 1.327.286 1.721.86.395.573.592 1.337.592 2.292v.116zm-1.595-.116c0-.582-.085-1.044-.255-1.385-.17-.341-.46-.512-.869-.512-.248 0-.458.053-.63.158a1.09 1.09 0 0 0-.405.45v2.534c.098.18.234.319.408.415.173.095.386.143.638.143.413 0 .702-.146.866-.44.165-.293.247-.708.247-1.247v-.116zm5.207 3.059c-.855 0-1.538-.277-2.05-.83-.511-.553-.767-1.255-.767-2.107v-.221c0-.889.242-1.62.726-2.196.484-.575 1.134-.861 1.949-.857.8 0 1.421.243 1.863.73.442.486.663 1.145.663 1.974v.88h-3.54l-.011.033c.029.394.16.719.392.973.232.255.547.382.945.382.354 0 .649-.036.883-.108.233-.072.49-.185.767-.34l.433.995c-.241.2-.557.365-.948.495-.391.131-.826.197-1.305.197zm-.142-4.967a.83.83 0 0 0-.702.343c-.172.229-.278.53-.318.902l.017.027h1.962v-.144c0-.342-.08-.616-.239-.82-.159-.206-.399-.308-.72-.308zm6.939 4.85a3.417 3.417 0 0 1-.151-.43 3.025 3.025 0 0 1-.09-.465c-.165.291-.381.532-.65.724-.269.192-.59.288-.962.288-.621 0-1.1-.161-1.436-.484-.336-.323-.504-.762-.504-1.32 0-.585.224-1.04.671-1.363.448-.322 1.101-.484 1.96-.484H74v-.475c0-.288-.075-.51-.225-.67-.15-.158-.37-.237-.663-.237-.26 0-.46.063-.6.19-.14.128-.211.304-.211.529l-1.546-.006-.005-.033c-.026-.505.192-.941.652-1.308.46-.367 1.065-.55 1.814-.55.71 0 1.285.181 1.727.544.442.364.663.88.663 1.552v2.472c0 .28.021.544.063.791.042.247.109.492.2.736h-1.6zm-1.464-1.078c.282 0 .532-.07.751-.21.22-.14.367-.302.444-.487v-.846h-.893c-.34 0-.598.086-.773.257a.838.838 0 0 0-.263.622c0 .2.066.36.197.482.132.121.31.182.537.182zm5.476-4.906l.071.858c.197-.306.44-.544.73-.714a1.88 1.88 0 0 1 .97-.254c.598 0 1.066.19 1.402.57.337.38.505.975.505 1.786v3.739h-1.606v-3.734c0-.402-.08-.686-.241-.854-.161-.168-.404-.252-.73-.252a1.175 1.175 0 0 0-.992.498v4.342h-1.6V8.04h1.49zM37.023 22.865h-2.801l-.543 1.737h-1.617l2.747-8.053h1.638l2.735 8.053h-1.617l-.542-1.737zM34.617 21.6h2.011l-.986-3.164h-.033l-.992 3.164zm10.529.177c0 .885-.203 1.596-.609 2.135-.405.538-.972.807-1.699.807-.31 0-.586-.058-.827-.174a1.703 1.703 0 0 1-.62-.512v2.87h-1.595v-8.284h1.442l.093.708c.175-.262.386-.464.633-.606a1.7 1.7 0 0 1 .863-.213c.735 0 1.305.29 1.71.868.406.58.609 1.34.609 2.285v.116zm-1.6-.116c0-.565-.094-1.022-.28-1.372-.187-.35-.472-.525-.855-.525a1.2 1.2 0 0 0-.617.149c-.17.1-.304.241-.403.426v2.621c.099.17.233.299.403.388.17.088.38.132.628.132.387 0 .671-.153.852-.459.18-.306.271-.72.271-1.244v-.116zm7.936.116c0 .885-.203 1.596-.608 2.135-.406.538-.972.807-1.7.807-.31 0-.586-.058-.827-.174a1.703 1.703 0 0 1-.62-.512v2.87h-1.595v-8.284h1.442l.093.708c.176-.262.387-.464.633-.606a1.7 1.7 0 0 1 .863-.213c.735 0 1.305.29 1.71.868.406.58.609 1.34.609 2.285v.116zm-1.6-.116c0-.565-.094-1.022-.28-1.372-.186-.35-.471-.525-.855-.525a1.2 1.2 0 0 0-.617.149c-.17.1-.304.241-.403.426v2.621c.1.17.233.299.403.388.17.088.38.132.628.132.387 0 .671-.153.852-.459.181-.306.271-.72.271-1.244v-.116zm5.793 1.294c0-.177-.085-.33-.255-.46-.17-.128-.485-.243-.945-.342-.702-.144-1.23-.357-1.587-.639-.356-.282-.535-.666-.535-1.153 0-.516.215-.954.644-1.314.43-.36 1.004-.539 1.724-.539.757 0 1.359.179 1.806.537.448.357.663.809.644 1.355l-.01.033h-1.546a.792.792 0 0 0-.228-.586c-.151-.152-.373-.227-.666-.227-.26 0-.463.063-.61.19a.605.605 0 0 0-.223.479c0 .184.078.336.233.454.155.118.47.223.946.315.73.147 1.273.364 1.627.65.355.285.532.679.532 1.18 0 .539-.228.979-.685 1.32-.457.34-1.06.511-1.809.511-.789 0-1.413-.202-1.872-.605-.458-.404-.676-.864-.655-1.38l.011-.034h1.464c.01.321.115.554.312.697.198.144.455.216.773.216.296 0 .522-.059.677-.177a.572.572 0 0 0 .233-.481z"/>
    </g>
</svg>
