<svg xmlns="http://www.w3.org/2000/svg" width="32" height="32" viewBox="0 0 32 32">
    <path fill="#FF5B5B" fill-rule="evenodd" d="M19.65 21.438v3.296c0 .698-.201 1.047-.605 1.047-.238 0-.47-.114-.698-.343v-4.704c.227-.229.46-.343.698-.343.404 0 .605.349.605 1.047zm5.246.015v.719H23.5v-.719c0-.708.233-1.062.699-1.062.465 0 .698.354.698 1.062zM9.904 18.047h1.66v-1.469H6.724v1.469h1.63v8.89h1.551v-8.89zm4.47 8.89h1.381V19.22h-1.381v5.906c-.31.438-.605.656-.885.656-.186 0-.295-.11-.326-.328-.01-.031-.015-.213-.015-.547V19.22h-1.381v6.11c0 .51.04.89.124 1.14.124.385.424.578.9.578.496 0 1.024-.318 1.583-.953v.843zm6.658-2.312v-3.078c0-.76-.047-1.276-.14-1.547-.176-.583-.543-.875-1.102-.875-.517 0-.998.281-1.443.844v-3.39h-1.381v10.358h1.38v-.75c.466.573.948.86 1.444.86.559 0 .926-.287 1.102-.86.093-.28.14-.802.14-1.562zm5.245-.156v-.203h-1.412c0 .53-.01.849-.031.953-.072.375-.28.562-.62.562-.477 0-.715-.36-.715-1.078v-1.36h2.778v-1.609c0-.823-.14-1.427-.419-1.812-.403-.531-.952-.797-1.645-.797-.703 0-1.257.266-1.66.797-.29.385-.435.99-.435 1.812v2.703c0 .823.15 1.428.45 1.813.404.531.962.797 1.676.797.745 0 1.304-.276 1.676-.828.187-.282.295-.563.326-.844.021-.094.031-.396.031-.906zm-9.436-14.266V6.922c0-.719-.222-1.078-.667-1.078-.445 0-.667.36-.667 1.078v3.281c0 .73.222 1.094.667 1.094.445 0 .667-.365.667-1.094zM28 21.938c0 2.437-.135 4.26-.404 5.468a2.972 2.972 0 0 1-.9 1.547 2.706 2.706 0 0 1-1.583.719C23.21 29.89 20.34 30 16.5 30c-3.839 0-6.71-.11-8.613-.328a2.742 2.742 0 0 1-1.591-.719 2.86 2.86 0 0 1-.892-1.547C5.134 26.24 5 24.416 5 21.938c0-2.438.135-4.26.404-5.47.144-.614.444-1.13.9-1.546a2.806 2.806 0 0 1 1.598-.735c1.894-.208 4.76-.312 8.598-.312 3.839 0 6.71.104 8.613.313.6.072 1.13.317 1.591.734.46.417.758.932.892 1.547.27 1.166.404 2.99.404 5.468zM12.511 2h1.583l-1.877 6.234v4.235h-1.552V8.234c-.145-.77-.46-1.875-.947-3.312C9.335 3.849 8.998 2.875 8.709 2h1.645l1.102 4.11L12.511 2zm5.743 5.203v2.734c0 .844-.145 1.459-.435 1.844-.393.532-.941.797-1.645.797-.693 0-1.236-.265-1.63-.797-.29-.396-.434-1.01-.434-1.844V7.204c0-.833.145-1.443.435-1.828.393-.531.936-.797 1.63-.797.703 0 1.251.266 1.644.797.29.385.435.995.435 1.828zm5.199-2.531v7.797H22.04v-.86c-.548.646-1.08.97-1.598.97-.476 0-.781-.194-.916-.579-.082-.25-.124-.64-.124-1.172V4.672h1.412v5.734c0 .344.006.526.016.547.031.23.14.344.326.344.28 0 .574-.224.884-.672V4.672h1.413z"/>
</svg>
