<svg xmlns="http://www.w3.org/2000/svg" width="120" height="120" viewBox="0 0 120 120">
    <g fill="none">
        <path fill="#FFF" d="M77.577 9.63H19.64v100.645h81.605V33.16z"/>
        <path fill="#ACD9FF" d="M102.867 111.904H18.02V8h60.222l24.642 24.516v79.388h-.017zm-81.588-3.242h78.329V33.806l-22.68-22.563H21.28v97.419z"/>
        <path fill="#D6ECFF" d="M26.177 103.789V16.115h48.789L94.71 35.76v68.03z"/>
        <path d="M31.399 55.08h3.259v3.243h-3.26zm8.328 0h3.259v3.243h-3.26zm8.31 0h3.259v3.243h-3.26z" fill="#9A8BD6"/>
        <path fill="#9A8BD6" d="M54.897 22.448l-8.805 9.576 10.768 7.47c1.467-2.105 2.287-4.703 2.287-7.47-.018-3.735-1.639-7.131-4.25-9.576z"/>
        <path fill="#FFACB9" d="M42.491 32.346l8.806-9.575a12.982 12.982 0 0 0-8.806-3.413c-7.184 0-13.055 5.84-13.055 12.988s5.87 12.988 13.055 12.988c4.403 0 8.328-2.275 10.768-5.517l-10.768-7.47z"/>
        <path fill="#83C7FF" d="M74.966 35.759H94.71L74.966 16.115z"/>
        <path fill="#9A8BD6" d="M83.618 95.351V72.295h-3.26v23.056h-5.392V83.008h-3.26v12.343h-5.392V78.458h-3.26v16.893h-5.221V84.638h-3.26v10.713H49.18V83.008h-3.259v12.343h-5.393v-7.64H37.27v7.64h-3.43v3.243h53.209v-3.243z"/>
    </g>
</svg>
