<svg xmlns="http://www.w3.org/2000/svg" width="976" height="1125" viewBox="0 0 976 1125">
    <g fill="none" fill-rule="evenodd">
        <path fill="#D1F8EF" d="M762.5 411c143.5 86.5 77 400 49.5 437s-45.5 247.5-239 230.5S-7 990 109.5 848s400-195.5 305.5-290 204-233.5 347.5-147z"/>
        <path fill="#FFF" d="M338 1041.125L686 758v49l-348 283.125zm-75-50L611 708v49l-348 283.125zm160 99L771 807v49l-348 283.125z"/>
        <path fill="#83C7FF" d="M566 176l89 75-42.5 170L588 647l-37 324.5-12.5-3-17-297.5L420 769l28.5 157-13 4.5-51-171L457 628l15-198.5-76.5 67.5-35.5 87.5-10.5-5.5 35-104 94-104H583l45-97.5-62-82zM236.5 815.5h7.5L222.5 589 338 605.5l-39-35 39-28-127-6.5z"/>
        <path d="M467.5 370.5h145.028M438.5 625.5l178 26m-186 280l24-7m76 43l24 5m22-589l51-110m-25 189l53-214m-25 30l-68-92m96 67l-96-80m3 23.02V170.5m-81 194l-102 116m101-57l-92 78m-33 87l41-96m-51 88l40-109m-21 116l-26-13m272-172l-16 256m-76 13l17 302m50-333l-38 333m-29-302l-102 98m31 167l-31-167m19-144l178 26m-178 289l-54-181m87-325l-16 205m4-16l-75 136m-148 54l-24-280m32 285l-21-231m-14.5-50l130 5.5-39.5 29 39.5 32.5L209 586" stroke="#080617" stroke-linecap="square"/>
        <path fill="#A2F1DF" d="M467 267h73l20 90h-63z"/>
        <path fill="#30A1FF" d="M548.005 305.868l-8.5-38.25H466.53L442 251l106.005.118z"/>
    </g>
</svg>
