<svg xmlns="http://www.w3.org/2000/svg" width="976" height="1125" viewBox="0 0 976 1125">
    <g fill="none" fill-rule="evenodd">
        <path fill="#D1F8EF" d="M883.717 420.648c143.5 60.285-158 148.1-185.5 173.886-27.5 25.787-220 289.927-413.5 278.08-193.5-11.849-298.5-56.801-182-155.767 116.5-98.965 207.5-133.115 113-198.976-94.5-65.861 524.5-157.509 668-97.223z"/>
        <path fill="#83C7FF" d="M720 268.5l9.5 120-136 7-25 211 11 306L563 915l-47.5-249-22 107.5L444 924h-17l33.5-163.5L457 628l10-173.5-52.5 42.5 47.5 46.5-1.5 19-79-54.5L472 401l103-45 130 11 4-98.5z"/>
        <path fill="#CECDD1" d="M281 490l27-54-27-69-13 137 9 220.5h-12.5l-34.5-177L212 729h-13l-10-212.5 8-121.5-39 33.5 35 33-1 13.5-58-41.5 63-72.5 99.5-22.5 30 105-36.5 50z"/>
        <g transform="translate(379 131)">
            <path stroke="#FFACB9" stroke-linecap="round" stroke-linejoin="round" stroke-width="6" d="M17.5 255l193-87.5 77-20 89-48H426l105.5-94L564 0"/>
            <circle cx="210" cy="168" r="7" fill="#FF8297"/>
            <circle cx="288" cy="148" r="7" fill="#FF8297"/>
            <circle cx="376" cy="100" r="7" fill="#FF8297"/>
            <circle cx="427" cy="100" r="7" fill="#FF8297"/>
            <circle cx="533" cy="7" r="7" fill="#FF8297"/>
            <path stroke="#080617" stroke-linecap="square" d="M87.5 273.5l115-51m-158 570h24m110-7l25-3m-19-558l144 11m-114 28l140-6m-29-16l5-118m21 141l-11-129m-18 1.02h29m-249 124.98l-102 116m91-58l-63 52m80 65l-74-71m64 78l-96-68m89 70l13-19m110-169l-25 217m-53 61l49 256m3-323l13 322m-64-263l-26 127m-51 147l57-169m-48-136l142-27m-164 329l34-179m1-188l-6 77m12-191l-4 96m-4 79v151"/>
            <path stroke="#FF5974" stroke-linecap="round" stroke-width="5" d="M319.5 147.5l42-23"/>
        </g>
        <path fill="#A2F1DF" d="M537.677 251.977l-66.69 29.692 18.336 90.354 57.554-25.625z"/>
        <path fill="#30A1FF" d="M479.439 319.926l-7.122-38.53 67.175-28.515L555.578 228l-97.532 41.528z"/>
        <path d="M195.358 361.644L295.5 339.5M195.36 730h17.28m47.725-3.375l18.27-2.25M295.5 338.5l32 108m-50-91l32 80m-25 63l45-60m-21-3l-31 59m-1-6l17.15 5.513m-88.004-141.658l-72.292 82.29m65.286-40.287l-45.28 37.284m56.287 46.004l-52.294-50.292m45.291 55.291l-68.288-48.29m64.001 49.295l9.286-13.3M282.5 362.5l-14.135 142.144m-38.005 43.712l35.28 182.288m1.717-230.288l9.286 229.288m-45.995-187.289L211.5 733.5m-29.143-212.857L274.5 503.5m-82.857-29.141l-4.286 55.282m9.243-137.285l-3.2 68.288m-3.4 56.711l9.5 219.145" stroke="#080617" stroke-linecap="square"/>
        <path fill="#A2F1DF" d="M537.677 251.977l-66.69 29.692 18.336 90.354 57.554-25.625z"/>
        <path fill="#30A1FF" d="M479.439 319.926l-7.122-38.53 67.175-28.515L555.578 228l-97.532 41.528z"/>
        <path fill="#A2F1DF" d="M259.955 271.762l-46.25 12.393 2.858 61.35 39.914-10.694z"/>
        <path fill="#30A1FF" d="M215.19 309.278l-.626-25.71 46.758-11.658 13.079-14.498-67.902 17.01z"/>
    </g>
</svg>
