<svg id="Слой_1" xmlns="http://www.w3.org/2000/svg" viewBox="0 0 787.3 767.3">
    <style>
        .st0{fill:#d1f8ef}.st1{fill:#83c7ff}.st2{fill:none;stroke:#080617;stroke-width:1.426;stroke-linecap:square}.st3{fill:#a2f1df}.st4{fill:#30a1ff}
    </style>
    <path class="st0" d="M43.1 750c-143.5-53.1 86.7-534.4 465.5-588.3 378.8-53.9 298.5 50.1 182 137.3-116.5 87.2-74 307.3 20.5 365.3S186.6 803.1 43.1 750z"/>
    <path class="st1" d="M400.9 331.6l38.5-77-38.5-98.4-18.5 195.3 12.8 314.4h-17.8l-49.2-252.3-25.7 258.8H284l-14.3-303 11.4-173.2-55.6 47.8 49.9 47-1.4 19.2-82.8-59.2 89.9-103.4 141.9-32 42.8 149.7-52.1 71.3-12.8-5z"/>
    <path class="st2" d="M278.7 148.6L421.6 117M278.7 673.8h24.6m68.2-4.9l26.1-3.2m24-550.1l45.6 154m-71.3-129.8l45.6 114.1m-35.6 89.8l64.2-85.5m-30-4.3L395.9 338m-1.4-8.5l24.5 7.9m-125.6-202L190.3 252.7m93.1-57.5l-64.6 53.2m80.3 65.6l-74.6-71.7m64.6 78.8l-97.4-68.8m91.3 70.2l13.2-19M403 149.8l-20.2 202.6m-54.1 62.4L379 674.7m2.4-328.3l13.2 326.9m-65.5-267.1l-27.3 272.5m-41.6-303.4l131.4-24.4m-118.2-41.6l-6.1 78.8m13.2-195.7l-4.6 97.4m-4.8 80.8L284.6 683"/>
    <path class="st3" d="M370.9 20.5l-66 17.7 4.1 87.5 56.9-15.3 5-89.9z"/>
    <path class="st4" d="M307 74l-.9-36.7 66.7-16.6L391.5 0l-96.9 24.3L307 74z"/>
</svg>
