<svg xmlns="http://www.w3.org/2000/svg" width="976" height="1125" viewBox="0 0 976 1125">
    <g fill="none" fill-rule="evenodd">
        <path fill="#D1F8EF" d="M92.533 726.352c-143.5-60.285 158-148.1 185.5-173.886C305.533 526.679 305.5 330.152 499 342c193.5 11.848 256 111.5 139.5 210.466C522 651.43 964.467 738 828 878.5 691.533 1019 236.033 786.638 92.533 726.352z"/>
        <rect width="231" height="23" x="242" y="125" fill="#D1F8EF" rx="2"/>
        <rect width="167" height="23" x="219" y="207" fill="#D6ECFF" rx="2"/>
        <rect width="90" height="23" x="410" y="207" fill="#D6ECFF" rx="2"/>
        <rect width="200" height="23" x="512" y="207" fill="#D6ECFF" rx="2"/>
        <rect width="200" height="23" x="363" y="247" fill="#BCB2E3" rx="2"/>
        <rect width="231" height="23" x="281" y="166" fill="#FFACB9" rx="2"/>
        <rect width="90" height="23" x="535" y="166" fill="#FF8297" rx="2"/>
        <path fill="#83C7FF" d="M511.5 460l87.334 31.589 34.784-52.812 16.748 140.402-11.595 284.025h16.104l44.447-227.993L722.512 869h16.748l12.883-273.72-10.307-156.503 50.245 43.151-45.091 42.507 1.288 17.39L823 488.369l-81.164-93.387L633.618 371.5 584.5 464l-67-12.5z"/>
        <path d="M743.6 395.459L628.5 372.5m115.097 497.482h-22.28m-61.534-4.347l-23.556-2.899M634.5 369.5l-45 97m47-28l-40.069 52.102m6.069.898l-91-32m79 6l-74-14m3-1l-7.257 10.246m218.092-77.254L823.543 489.5m-84.176-51.898l58.383 48.029m-72.574 59.264l67.424-64.787m-58.395 71.227l88.047-62.208m-82.52 63.503l-11.972-17.134M635.5 429.5l13.968 150.175m49.002 56.31l-45.488 234.827m-2.214-296.662l-11.972 295.374m59.302-241.269l24.689 246.236m37.576-274.207l-118.805-22.083M748.39 540.66l5.525 71.216m-11.917-176.854l4.126 87.97m4.384 73.058l-12.25 282.306" stroke="#080617" stroke-linecap="square"/>
        <path fill="#A2F1DF" d="M660.513 280.598l59.624 15.976-3.677 79.062-51.456-13.787z"/>
        <path fill="#30A1FF" d="M718.23 328.951l.804-33.13-60.278-15.03-16.862-18.685 87.536 21.928z"/>
        <path fill="#9A8BD6" d="M253.5 696.5l42-112-165.5-11 9.5-81.5-19.5-10.5 37.5-97 58-12.5 44 115 65.5 31.5-3.5 5.5-73-21.5-39.5-87-12 91 25.5 17.5-4.5 10.25-21-13.75-4 13.75 153.5 27.25 16.5 135-9.5 4-34-93.5-52.5 89.5z"/>
        <path stroke="#080617" stroke-linecap="square" d="M145.5 387.5l74-16m27 325h24m75 5l25-3m-157-332l46 122m-51-75l40 89m10-18l71 36m-2 6l-81-25m-86-126l-43 112m52-69l-30 54m84 53l-87-62m86 72l-111-58m106 56l7-15m96 8l6-12"/>
        <path stroke="#7965C8" stroke-linecap="round" stroke-width="5" d="M256.5 535.5l96 16 33-70"/>
        <path stroke="#080617" stroke-linecap="square" d="M216.5 369.375l-20 138.125m-1 14l-3 14m153 20l19 147m-54-120l45 123m-165-170l160 26m-31 46l-56 93m-10-3l42-111m-170-37l69-28m120 65l-184-12m9-82l-7 69m4-16l-4 36"/>
        <g>
            <path fill="#A2F1DF" d="M215.922 303.919l-10.333 62.937-42.576 6.423 3.575-61.917z"/>
            <path fill="#9A8BD6" d="M165.53 337.7l-5.402-36.518 71.822-9.654-14.982 13.3-49.452 6.592z"/>
        </g>
        <path fill="#CECDD1" d="M302 699c17.333-73.333-2.833-112.167-60.5-116.5-86.5-6.5-68.5-5-127-5S13 697.5 53 699c26.667 1 109.667 1 249 0z"/>
    </g>
</svg>
