<svg xmlns="http://www.w3.org/2000/svg" width="827" height="469" viewBox="0 0 827 469">
    <g fill="none" fill-rule="evenodd" stroke="#FFF" stroke-linecap="round" stroke-linejoin="round" stroke-width="2" opacity=".08">
        <path d="M620.2 354.52l62.415-80.413 69.72 15.966-30.342 64.77z"/>
        <path d="M690.646 320.263l-79.311-63.808 17.18-69.431 64.232 31.468z"/>
        <path d="M655.016 246.338l-62.414 80.413-69.72-15.967 30.342-64.77zm146.241-77.121l-56.652 84.57-70.665-11.063 25.75-66.73z"/>
        <path d="M655.249 68.682l81.49 61.001-14.748 69.99-65.29-29.208z"/>
        <path d="M737.12 31.13l-61.002 81.489-69.989-14.747 29.208-65.29z"/>
        <path d="M624.871 179.248l-80.413-62.414 15.967-69.72 64.77 30.342z"/>
        <path d="M558.493 208.596l63.808-79.312 69.431 17.181-31.468 64.231z"/>
        <path d="M507.187 141.25l82.542 59.57-13.524 70.235-65.79-28.063z"/>
        <path d="M581.447 88.035l-52.149 87.42-71.147-7.351 22.223-67.986z"/>
        <path d="M487.09 242.51l-82.542-59.57 13.523-70.236 65.79 28.064z"/>
        <path d="M413.38 282.717l61-81.49 69.989 14.747-29.208 65.29z"/>
        <path d="M368.782 210.635l77.036 66.537-19.594 68.79-63.093-33.692z"/>
        <path d="M450.059 177.634l-66.537 77.036-68.79-19.594 33.691-63.093z"/>
        <path d="M336.808 330.986l-75.863-67.872 20.79-68.437 62.497 34.787z"/>
        <path d="M269.443 354.52l62.414-80.413 69.72 15.966-30.342 64.77z"/>
        <path d="M225.001 279.086l79.312 63.808-17.181 69.43-64.232-31.467z"/>
        <path d="M130.203 438.871l53.667-86.496 71.007 8.591-23.406 67.588z"/>
        <path d="M195.08 386.916L106.765 336.3l6.108-71.264 68.363 21.033z"/>
        <path d="M303.907 246.54l-62.414 80.413-69.72-15.967 30.342-64.77zm-149.714 72.793L91.78 399.746l-69.72-15.967L52.4 319.01zm428.365-40.609l78.186 65.182-18.39 69.121-63.672-32.584z"/>
    </g>
</svg>
