<svg xmlns="http://www.w3.org/2000/svg" width="32" height="32" viewBox="0 0 32 32">
    <path fill="#833AB4" fill-rule="evenodd" d="M19.3 19.3c.91-.912 1.367-2.012 1.367-3.3 0-1.288-.456-2.388-1.368-3.3-.911-.91-2.01-1.367-3.299-1.367-1.288 0-2.388.456-3.3 1.368-.91.911-1.367 2.01-1.367 3.299 0 1.288.456 2.388 1.368 3.3.911.91 2.01 1.367 3.299 1.367 1.288 0 2.388-.456 3.3-1.368zm1.786-8.386c1.398 1.398 2.096 3.093 2.096 5.086 0 1.993-.698 3.688-2.096 5.086-1.398 1.398-3.093 2.096-5.086 2.096-1.993 0-3.688-.698-5.086-2.096C9.516 19.688 8.818 17.993 8.818 16c0-1.993.698-3.688 2.096-5.086C12.312 9.516 14.007 8.818 16 8.818c1.993 0 3.688.698 5.086 2.096zm3.573-3.573c.328.328.492.723.492 1.185 0 .462-.164.857-.492 1.185a1.615 1.615 0 0 1-1.185.492c-.462 0-.857-.164-1.185-.492a1.615 1.615 0 0 1-.492-1.185c0-.462.164-.857.492-1.185a1.615 1.615 0 0 1 1.185-.492c.462 0 .857.164 1.185.492zm-7.274-2.825H16l-1.395-.01a98.892 98.892 0 0 0-1.923 0 74.27 74.27 0 0 0-1.759.055c-.735.03-1.36.091-1.877.182a7.309 7.309 0 0 0-1.304.338 4.73 4.73 0 0 0-1.604 1.057 4.73 4.73 0 0 0-1.057 1.604 7.309 7.309 0 0 0-.338 1.304 14.446 14.446 0 0 0-.182 1.877 68.34 68.34 0 0 0-.054 1.76 98.892 98.892 0 0 0 0 1.922L4.516 16l-.01 1.395a98.892 98.892 0 0 0 0 1.923c.007.437.025 1.024.055 1.759.03.735.091 1.36.182 1.877.092.517.204.951.338 1.304a4.73 4.73 0 0 0 1.057 1.604 4.73 4.73 0 0 0 1.604 1.057 7.36 7.36 0 0 0 1.304.338c.516.09 1.142.151 1.877.182.735.03 1.322.048 1.76.054.437.007 1.078.007 1.922 0L16 27.484l1.395.01c.844.006 1.485.006 1.923 0a67.533 67.533 0 0 0 1.759-.055c.735-.03 1.36-.091 1.877-.182a7.309 7.309 0 0 0 1.304-.338 4.73 4.73 0 0 0 1.604-1.057 4.73 4.73 0 0 0 1.057-1.604 7.36 7.36 0 0 0 .338-1.304c.09-.516.151-1.142.182-1.877.03-.735.048-1.322.054-1.76.007-.437.007-1.078 0-1.922L27.484 16l.01-1.395c.006-.844.006-1.485 0-1.923a67.533 67.533 0 0 0-.055-1.759 14.446 14.446 0 0 0-.182-1.877 7.309 7.309 0 0 0-.338-1.304 4.73 4.73 0 0 0-1.057-1.604 4.73 4.73 0 0 0-1.604-1.057 7.309 7.309 0 0 0-1.304-.338 14.446 14.446 0 0 0-1.877-.182 67.533 67.533 0 0 0-1.76-.054 74.486 74.486 0 0 0-1.932.009zM29.91 10.22c.06 1.07.091 2.996.091 5.779s-.03 4.71-.091 5.779c-.122 2.527-.875 4.484-2.26 5.87-1.386 1.385-3.343 2.138-5.87 2.26-1.07.06-2.996.091-5.779.091s-4.71-.03-5.779-.091c-2.527-.122-4.484-.875-5.87-2.26-1.385-1.386-2.138-3.343-2.26-5.87C2.031 20.709 2 18.783 2 16s.03-4.71.091-5.779c.122-2.527.875-4.484 2.26-5.87 1.386-1.385 3.343-2.138 5.87-2.26C11.291 2.031 13.217 2 16 2s4.71.03 5.779.091c2.527.122 4.484.875 5.87 2.26 1.385 1.386 2.138 3.343 2.26 5.87z"/>
</svg>
