<svg xmlns="http://www.w3.org/2000/svg" width="120" height="120" viewBox="0 0 120 120">
    <g fill="none" transform="translate(8 8)">
        <g fill="#FFF" transform="translate(1.56 1.56)">
            <circle cx="50.5" cy="50.511" r="10.774"/>
            <circle cx="30.247" cy="70.765" r="7.547"/>
            <circle cx="8.396" cy="92.616" r="4.824"/>
            <circle cx="8.396" cy="92.616" r="4.824"/>
            <circle cx="30.415" cy="96.162" r="4.824"/>
            <circle cx="4.85" cy="70.597" r="4.824"/>
            <circle cx="70.754" cy="30.258" r="7.547"/>
            <circle cx="92.604" cy="8.407" r="4.824"/>
            <circle cx="30.247" cy="30.258" r="7.547"/>
            <circle cx="8.396" cy="8.407" r="4.824"/>
            <path d="M34.432 2.289a4.805 4.805 0 0 0-8.035 0 4.598 4.598 0 0 0 0 5.311 4.805 4.805 0 0 0 8.035 0 4.597 4.597 0 0 0 0-5.311z"/>
            <circle cx="70.754" cy="70.765" r="7.547"/>
            <circle cx="92.772" cy="92.616" r="4.824"/>
            <circle cx="96.151" cy="70.597" r="4.824"/>
        </g>
        <circle cx="52.06" cy="52.072" r="4.337" fill="#17DCAE"/>
        <g fill="#ACD9FF">
            <path d="M17.8 20.127l2.27-2.27 2.27 2.27-2.27 2.27zm2.355 61.64l2.27 2.27-2.27 2.27-2.27-2.27zm74.009-65.379c3.53 0 6.438-2.891 6.438-6.438 0-3.698-2.74-6.437-6.438-6.437-3.53 0-6.437 2.89-6.437 6.437.017 3.547 2.908 6.438 6.437 6.438zm0-9.648a3.22 3.22 0 0 1 3.21 3.21c0 1.765-1.294 3.21-3.21 3.21a3.22 3.22 0 0 1-3.21-3.21 3.22 3.22 0 0 1 3.21-3.21zM9.956 16.388a6.5 6.5 0 0 0 3.799-1.244l-.438.437 2.27 2.269 2.268-2.269-2.269-2.286-.453.454a6.312 6.312 0 0 0 1.244-3.799c0-3.53-2.891-6.437-6.438-6.437-3.53 0-6.438 2.89-6.438 6.437.018 3.547 2.909 6.438 6.455 6.438zm0-9.648a3.22 3.22 0 0 1 3.21 3.21 3.221 3.221 0 0 1-3.21 3.21 3.221 3.221 0 0 1-3.21-3.21c-.017-1.764 1.428-3.21 3.21-3.21zm7.866 81.839l-2.269-2.27-2.269 2.27.555.554c-1.093-.874-2.471-1.378-4.034-1.378-3.53 0-6.438 2.89-6.438 6.438 0 3.53 2.891 6.437 6.438 6.437 3.53 0 6.437-2.89 6.437-6.437a6.53 6.53 0 0 0-1.395-4.051l.723.723 2.252-2.286zm-8.034 8.824a3.22 3.22 0 0 1-3.21-3.21 3.221 3.221 0 0 1 3.21-3.21 3.221 3.221 0 0 1 3.21 3.21c0 1.764-1.277 3.21-3.21 3.21zm84.057-9.648c-3.53 0-6.437 2.89-6.437 6.438 0 3.53 2.89 6.437 6.437 6.437s6.438-2.89 6.438-6.437-2.891-6.438-6.438-6.438zm0 9.648a3.22 3.22 0 0 1-3.21-3.21 3.221 3.221 0 0 1 3.21-3.21 3.221 3.221 0 0 1 3.21 3.21c.017 1.764-1.445 3.21-3.21 3.21z"/>
            <path d="M97.71 65.736c-3.058 0-5.462 2.084-6.269 4.824H81.306a9.155 9.155 0 0 0-8.992-7.395c-1.933 0-3.698.639-5.144 1.613l-5.31-5.31a12.183 12.183 0 0 0 2.57-7.548c0-2.89-.957-5.462-2.57-7.546l5.31-5.312c1.446.959 3.211 1.614 5.144 1.614 4.975 0 9.16-4.017 9.16-9.16 0-4.975-4.017-9.16-9.16-9.16-4.975 0-9.16 4.017-9.16 9.16 0 1.932.638 3.697 1.613 5.143l-5.311 5.295a12.183 12.183 0 0 0-7.547-2.572c-2.89 0-5.463.958-7.547 2.572l-5.143-4.976c.958-1.445 1.613-3.21 1.613-5.143 0-4.504-3.21-8.202-7.546-9.01V12.708c2.89-.639 4.975-3.21 4.975-6.27C38.26 2.908 35.37 0 31.823 0c-3.53 0-6.437 2.89-6.437 6.438 0 2.89 1.932 5.31 4.655 6.101v10.286a9.293 9.293 0 0 0-3.58 1.48l-1.9-1.9-2.268 2.27 1.882 1.882c-1.059 1.479-1.664 3.294-1.664 5.277 0 4.976 4.018 9.16 9.16 9.16 1.933 0 3.698-.638 5.144-1.613l5.311 5.311a12.183 12.183 0 0 0-2.571 7.547c0 2.891.958 5.463 2.571 7.547l-5.143 5.143c-1.446-.958-3.21-1.613-5.143-1.613a9.16 9.16 0 0 0-9.01 7.395l-10.118-.168c-.639-2.74-3.21-4.824-6.27-4.824-3.53 0-6.437 2.891-6.437 6.438 0 3.546 2.89 6.437 6.438 6.437 2.89 0 5.462-2.084 6.101-4.824l10.118.168c.168 1.278.807 2.572 1.446 3.698l-1.933 1.933 2.253 2.252 1.932-1.933c1.126.807 2.253 1.295 3.698 1.446l.168 10.118c-2.74.807-4.824 3.21-4.824 6.102 0 3.53 2.89 6.437 6.438 6.437 3.53 0 6.437-2.89 6.437-6.437 0-3.06-2.084-5.463-4.824-6.27l-.168-10.118a9.155 9.155 0 0 0 7.396-8.992c0-1.933-.64-3.698-1.614-5.144l5.311-5.31a12.183 12.183 0 0 0 7.547 2.57c2.891 0 5.463-.957 7.547-2.57l5.311 5.31c-.958 1.446-1.613 3.21-1.613 5.144 0 4.975 4.017 9.16 9.16 9.16 4.504 0 8.202-3.21 8.992-7.547l10.119-.168c.806 2.74 3.21 4.824 6.101 4.824 3.53 0 6.438-2.89 6.438-6.437.152-3.378-2.74-6.27-6.27-6.27zM72.315 25.868c3.21 0 5.95 2.571 5.95 5.95 0 3.378-2.74 5.782-5.95 5.782a5.76 5.76 0 0 1-5.782-5.782c0-3.21 2.572-5.95 5.782-5.95zM28.747 6.42a3.22 3.22 0 0 1 3.21-3.21 3.221 3.221 0 0 1 3.21 3.21 3.22 3.22 0 0 1-3.21 3.21 3.22 3.22 0 0 1-3.21-3.21zm3.06 31.347c-3.21 0-5.95-2.572-5.95-5.95 0-3.379 2.571-5.95 5.95-5.95 3.378 0 5.95 2.571 5.95 5.95 0 3.378-2.74 5.95-5.95 5.95zM6.41 75.384a3.22 3.22 0 0 1-3.21-3.21 3.22 3.22 0 0 1 3.21-3.21 3.221 3.221 0 0 1 3.21 3.21 3.22 3.22 0 0 1-3.21 3.21zm28.775 22.338a3.22 3.22 0 0 1-3.21 3.21 3.22 3.22 0 0 1-3.21-3.21 3.221 3.221 0 0 1 3.21-3.21 3.22 3.22 0 0 1 3.21 3.21zm-3.378-19.447c-3.21 0-5.95-2.571-5.95-5.95 0-3.378 2.571-5.95 5.95-5.95 3.21 0 5.95 2.572 5.95 5.95 0 3.379-2.74 5.95-5.95 5.95zM52.06 61.232c-4.975 0-9.16-4.017-9.16-9.16 0-4.976 4.017-9.16 9.16-9.16 4.975 0 9.16 4.016 9.16 9.16 0 4.975-4.185 9.16-9.16 9.16zm20.254 17.043c-3.21 0-5.95-2.571-5.95-5.95 0-3.21 2.571-5.95 5.95-5.95 3.378 0 5.95 2.572 5.95 5.95 0 3.21-2.74 5.95-5.95 5.95zm25.397-2.89a3.22 3.22 0 0 1-3.21-3.211 3.22 3.22 0 0 1 3.21-3.21 3.22 3.22 0 0 1 3.21 3.21 3.22 3.22 0 0 1-3.21 3.21z"/>
        </g>
    </g>
</svg>
