<svg xmlns="http://www.w3.org/2000/svg" width="120" height="120" viewBox="0 0 120 120">
    <g fill="none" fill-rule="evenodd" transform="translate(8 8)">
        <path d="M67.538 48.718h3.243v3.243h-3.243zM50.322 76.969h3.243v3.243h-3.243zM33.124 48.718h3.243v3.243h-3.243z" fill="#ACD9FF" fill-rule="nonzero"/>
        <circle cx="52" cy="22" r="19" fill="#FFF"/>
        <circle cx="22" cy="82" r="19" fill="#FFF"/>
        <circle cx="82" cy="82" r="19" fill="#FFF"/>
        <g fill="#45E3BE" fill-rule="nonzero" transform="translate(35.455 8.141)">
            <path d="M16.498 33.259c6.825 0 12.818-3.413 16.4-8.76a19.842 19.842 0 0 0-16.4-8.609c-6.825 0-12.819 3.413-16.4 8.608 3.581 5.365 9.575 8.761 16.4 8.761z"/>
            <circle cx="16.498" cy="6.315" r="6.163"/>
        </g>
        <g fill="#FFACB9" fill-rule="nonzero" transform="translate(4.99 69.07)">
            <path d="M16.606 33.213c6.825 0 12.818-3.413 16.4-8.761a19.842 19.842 0 0 0-16.4-8.608c-6.825 0-12.818 3.413-16.4 8.608 3.412 5.365 9.422 8.76 16.4 8.76z"/>
            <circle cx="16.606" cy="6.269" r="6.163"/>
        </g>
        <g fill="#7965C8" fill-rule="nonzero" transform="translate(65.657 69.07)">
            <path d="M16.652 33.213c6.825 0 12.818-3.413 16.4-8.761a19.842 19.842 0 0 0-16.4-8.608c-6.825 0-12.818 3.413-16.4 8.608 3.582 5.365 9.592 8.76 16.4 8.76z"/>
            <circle cx="16.652" cy="6.269" r="6.163"/>
        </g>
        <path fill="#ACD9FF" fill-rule="nonzero" d="M82.309 60.891c-5.688 0-10.713 2.275-14.618 5.688l-14.126-8.116V43.047c11.036-.815 19.966-10.067 19.966-21.426C73.548 9.584 63.803.008 51.952.008c-11.85 0-21.596 9.576-21.596 21.596 0 11.358 8.761 20.611 19.966 21.426v15.416l-14.125 8.116c-3.888-3.566-8.93-5.688-14.618-5.688C9.576 60.89 0 70.467 0 82.317c0 12.02 9.576 21.596 21.596 21.596 11.85 0 21.596-9.576 21.596-21.596 0-5.025-1.783-9.576-4.703-13.31l13.633-7.794 13.633 7.793c-2.92 3.735-4.703 8.285-4.703 13.311 0 11.85 9.576 21.596 21.596 21.596 11.698 0 21.273-9.576 21.273-21.596-.017-11.85-9.592-21.426-21.612-21.426zm-60.713 39.78c-10.22 0-18.353-8.116-18.353-18.354 0-10.068 8.115-18.353 18.353-18.353 10.068 0 18.353 8.115 18.353 18.353-.17 10.238-8.285 18.353-18.353 18.353zm12.003-79.067c0-10.22 8.285-18.353 18.353-18.353 10.068 0 18.353 8.116 18.353 18.353 0 10.068-8.115 18.354-18.353 18.354-10.068-.17-18.353-8.286-18.353-18.354zm48.71 79.066c-10.068 0-18.353-8.115-18.353-18.353 0-10.068 8.115-18.353 18.353-18.353 10.067 0 18.353 8.115 18.353 18.353 0 10.238-8.116 18.353-18.353 18.353z"/>
    </g>
</svg>
