<?xml version="1.0" encoding="UTF-8"?><!DOCTYPE svg PUBLIC "-//W3C//DTD SVG 1.1//EN" "http://www.w3.org/Graphics/SVG/1.1/DTD/svg11.dtd"><svg xmlns="http://www.w3.org/2000/svg"><symbol id="icon-arrow-right" viewBox="0 0 24 24">
    <path fill-rule="evenodd" d="M8 16.59L12.58 12 8 7.41 9.41 6l6 6-6 6z"/>
</symbol><symbol id="icon-arrow-top" viewBox="0 0 24 24">
    <path fill-rule="evenodd" d="M7.115 15.705l4.59-4.58 4.59 4.58 1.41-1.41-6-6-6 6z"/>
</symbol><symbol id="icon-articles" viewBox="0 0 40 40">
    <g>
        <path d="M17.118 21.277a2.802 2.802 0 0 0 .773-1.933 2.816 2.816 0 0 0-2.813-2.813c-1.548 0-2.86 1.25-2.86 2.813 0 .725.284 1.41.798 1.937-1.294.715-2.204 2.081-2.204 3.688v.703c0 .388.315.703.704.703h7.078a.703.703 0 0 0 .703-.703v-.703a4.22 4.22 0 0 0-2.18-3.692zm-2.04-3.34a1.408 1.408 0 0 1 0 2.813c-.788 0-1.453-.644-1.453-1.406 0-.763.665-1.407 1.453-1.407zm-2.86 7.032c0-1.551 1.283-2.813 2.86-2.813a2.816 2.816 0 0 1 2.813 2.813h-5.672z"/>
        <path d="M31.297 16.531H27.78V8.703A.703.703 0 0 0 27.078 8H8.703A.703.703 0 0 0 8 8.703v19.781A3.52 3.52 0 0 0 11.516 32h17.672A2.816 2.816 0 0 0 32 29.187V17.235a.703.703 0 0 0-.703-.703zM11.516 30.594a2.112 2.112 0 0 1-2.11-2.11V9.406h16.969v19.781c0 .513.138.993.378 1.407H11.516zm19.078-1.407a1.408 1.408 0 0 1-2.813 0v-11.25h2.813v11.25z"/>
        <path d="M24.266 24.969h-2.86a.703.703 0 0 0 0 1.406h2.86a.703.703 0 0 0 0-1.406zm0 2.812h-12.75a.703.703 0 0 0 0 1.407h12.75a.703.703 0 0 0 0-1.407zm0-11.25h-2.86a.703.703 0 0 0 0 1.407h2.86a.703.703 0 0 0 0-1.407zm0 2.813h-2.86a.703.703 0 0 0 0 1.406h2.86a.703.703 0 0 0 0-1.406zm0 2.812h-2.86a.703.703 0 0 0 0 1.407h2.86a.703.703 0 0 0 0-1.407zm0-11.343h-12.75a.703.703 0 0 0-.704.703v2.859c0 .388.315.703.704.703h12.75a.703.703 0 0 0 .703-.703v-2.86a.703.703 0 0 0-.703-.703zm-.703 2.859H12.219v-1.453h11.344v1.453z"/>
    </g>
</symbol><symbol id="icon-business-time" viewBox="0 0 40 40">
    <g>
        <path d="M19.953 8C13.347 8 8 13.346 8 19.953 8 26.511 13.298 32 19.953 32 26.537 32 32 26.576 32 19.953 32 13.291 26.504 8 19.953 8zm0 22.603c-5.815 0-10.556-4.783-10.556-10.65 0-5.815 4.74-10.556 10.556-10.556 5.867 0 10.65 4.74 10.65 10.556 0 5.867-4.783 10.65-10.65 10.65z"/>
        <path d="M21.041 19.953l2.316-2.315a.703.703 0 0 0-.995-.995l-2.812 2.813a.703.703 0 0 0 0 .994l2.812 2.813a.703.703 0 0 0 .995-.995l-2.316-2.315z"/>
        <path d="M19.953 10.813c-5.035 0-9.14 4.096-9.14 9.14 0 5.06 4.118 9.235 9.14 9.235 5.039 0 9.235-4.18 9.235-9.235 0-5.019-4.172-9.14-9.235-9.14zm5.98 14.126l-.417-.417a.703.703 0 1 0-.994.994l.417.418a7.805 7.805 0 0 1-4.283 1.814v-.67a.703.703 0 0 0-1.406 0v.67a7.652 7.652 0 0 1-4.232-1.772l.46-.46a.703.703 0 1 0-.994-.994l-.456.456a7.844 7.844 0 0 1-1.778-4.322h.672a.703.703 0 0 0 0-1.406h-.671a7.7 7.7 0 0 1 1.761-4.243l.472.471a.703.703 0 0 0 .994-.994l-.471-.472a7.7 7.7 0 0 1 4.243-1.761v.67a.703.703 0 0 0 1.406 0v-.67a7.843 7.843 0 0 1 4.322 1.777l-.456.456c-.445.444-.124 1.2.497 1.2a.7.7 0 0 0 .497-.206l.46-.46a7.651 7.651 0 0 1 1.773 4.232h-.67a.703.703 0 0 0 0 1.406h.669a7.805 7.805 0 0 1-1.814 4.283z"/>
    </g>
</symbol><symbol id="icon-certificates" viewBox="0 0 40 40">
    <g>
        <path d="M28.438 8H15.78a3.516 3.516 0 0 0-3.515 3.509v13.38H8.703A.702.702 0 0 0 8 25.59v.701c0 1.562 1.314 2.807 2.86 2.807h8.437v2.152a.702.702 0 0 0 1.204.493l2.311-2.346 2.312 2.346a.704.704 0 0 0 1.204-.493v-2.22a3.516 3.516 0 0 0 2.813-3.438V12.21h2.156a.704.704 0 0 0 .703-.702C32 9.569 30.381 8 28.437 8zm-17.58 19.696c-.787 0-1.453-.643-1.453-1.404h2.86c0 .774-.631 1.404-1.407 1.404zm14.063 1.841l-1.608-1.631a.704.704 0 0 0-1.003 0l-1.608 1.631V25.59a3.502 3.502 0 0 0 2.11.703c.79 0 1.52-.262 2.109-.703v3.948zm-2.11-4.648a2.11 2.11 0 0 1-2.109-2.105 2.11 2.11 0 0 1 4.219 0 2.11 2.11 0 0 1-2.11 2.105zm4.922.702c0 .914-.587 1.695-1.406 1.984v-4.791a3.516 3.516 0 0 0-3.515-3.51h-5.625a.698.698 0 1 0 0 1.399h2.814a3.5 3.5 0 0 0-.705 2.11v4.913h-6.004c.24-.413.379-.892.379-1.404V11.51a2.11 2.11 0 0 1 4.219 0c0 .387.314.702.703.702h9.14v13.38zm-8.508-14.784a3.491 3.491 0 0 0-.634-1.403h9.846a2.19 2.19 0 0 1 2.028 1.403h-11.24z"/>
        <path d="M24.219 16.421h-7.032a.702.702 0 1 0 0 1.404h7.032a.702.702 0 1 0 0-1.404zm0-2.807h-7.032a.702.702 0 1 0 0 1.404h7.032a.702.702 0 1 0 0-1.404z"/>
    </g>
</symbol><symbol id="icon-email" viewBox="0 0 40 40">
    <g>
        <path d="M19.953 8C13.347 8 8 13.346 8 19.953 8 26.511 13.298 32 19.953 32 26.546 32 32 26.567 32 19.953 32 13.291 26.504 8 19.953 8zm0 22.603c-5.815 0-10.556-4.783-10.556-10.65 0-5.815 4.74-10.556 10.556-10.556 5.867 0 10.65 4.74 10.65 10.556 0 5.867-4.783 10.65-10.65 10.65z"/>
        <path d="M19.953 12.219c-4.265 0-7.734 3.47-7.734 7.734 0 4.28 3.462 7.828 7.734 7.828 1.729 0 3.477-.58 4.797-1.594a.703.703 0 1 0-.856-1.115c-1.08.828-2.516 1.312-3.94 1.312-3.49 0-6.329-2.89-6.329-6.43 0-3.49 2.839-6.338 6.328-6.338 3.541 0 6.422 2.848 6.422 6.337v.703a1.408 1.408 0 0 1-2.813 0v-3.515a.703.703 0 0 0-1.406 0v.044a3.623 3.623 0 0 0-2.203-.747 3.52 3.52 0 0 0-3.515 3.515 3.52 3.52 0 0 0 3.515 3.516 3.64 3.64 0 0 0 2.706-1.21 2.81 2.81 0 0 0 5.122-1.603v-.703c0-4.277-3.552-7.734-7.828-7.734zm0 9.853a2.12 2.12 0 0 1 0-4.238c1.194 0 2.203.976 2.203 2.12 0 1.143-1.009 2.118-2.203 2.118z"/>
    </g>
</symbol><symbol id="icon-engagement-model" viewBox="0 0 40 40">
    <g>
        <path d="M27.981 15.59c.303.25.754.21 1.007-.086l1.836-2.155a.696.696 0 0 0-.088-.99l-2.189-1.808a.722.722 0 0 0-1.006.086l-1.836 2.155a.696.696 0 0 0 .088.99l.547.452-.938 1.101a9.317 9.317 0 0 0-3.26-1.464V12.22h.715a.709.709 0 0 0 .714-.703V8.703A.709.709 0 0 0 22.857 8h-5.714a.709.709 0 0 0-.714.703v2.813c0 .388.32.703.714.703h.714v1.652a9.317 9.317 0 0 0-3.259 1.464l-.938-1.1.547-.453a.696.696 0 0 0 .088-.99l-1.836-2.155a.722.722 0 0 0-1.006-.086l-2.19 1.807a.696.696 0 0 0-.087.991l1.836 2.154a.722.722 0 0 0 1.007.087l.547-.452.939 1.102c-1.721 1.66-2.79 3.972-2.79 6.526C10.714 27.806 14.852 32 20 32c5.154 0 9.286-4.2 9.286-9.234 0-2.554-1.07-4.866-2.79-6.526l.938-1.102.547.452zm-16.333-1.53l-.919-1.076 1.095-.904.918 1.077-1.094.904zm6.21-4.654h4.285v1.406h-4.286V9.406zm2.856 2.813v1.433a9.53 9.53 0 0 0-1.428 0v-1.433h1.428zm7.143 10.547c0 4.316-3.525 7.828-7.857 7.828-4.332 0-7.857-3.512-7.857-7.828 0-4.265 3.525-7.735 7.857-7.735 4.332 0 7.857 3.47 7.857 7.735zm.32-10.686l1.094.904-.919 1.077-1.094-.904.918-1.077z"/>
        <path d="M25.714 22.063h-5V17.14a.709.709 0 0 0-.714-.703c-3.545 0-6.429 2.838-6.429 6.328 0 3.486 2.872 6.422 6.429 6.422 3.56 0 6.429-2.938 6.429-6.422a.709.709 0 0 0-.715-.703zM20 27.78c-2.71 0-5-2.297-5-5.015 0-2.476 1.866-4.53 4.286-4.872v4.872c0 .388.32.703.714.703h4.949c-.353 2.4-2.476 4.312-4.949 4.312z"/>
    </g>
</symbol><symbol id="icon-facebook" viewBox="0 0 10 19">
    <title>
        facebook
    </title>
    <path d="M9.766.157v2.946H8.014c-.64 0-1.071.134-1.295.402-.223.268-.335.67-.335 1.205v2.11h3.27l-.435 3.303H6.384v8.471H2.97v-8.47H.123V6.82H2.97V4.387c0-1.384.387-2.457 1.161-3.22C4.904.404 5.934.023 7.222.023c1.093 0 1.941.045 2.544.134z" fill-rule="evenodd"/>
</symbol><symbol id="icon-fb" viewBox="0 0 32 32">
    <path fill-rule="evenodd" d="M28.45 2c.426 0 .79.152 1.094.456.304.304.456.668.456 1.093v24.902c0 .425-.152.79-.456 1.093a1.492 1.492 0 0 1-1.093.456h-7.128V19.154h3.628l.546-4.23h-4.174v-2.697c0-.681.143-1.191.428-1.532.286-.34.842-.51 1.668-.51l2.224-.018V6.393c-.765-.11-1.847-.164-3.245-.164-1.652 0-2.974.486-3.964 1.458-.99.973-1.486 2.346-1.486 4.12v3.117h-3.646v4.23h3.646V30H3.549c-.425 0-.79-.152-1.093-.456A1.492 1.492 0 0 1 2 28.451V3.549c0-.425.152-.79.456-1.093A1.492 1.492 0 0 1 3.549 2h24.902z"/>
</symbol><symbol id="icon-ins" viewBox="0 0 32 32">
    <path fill-rule="evenodd" d="M19.3 19.3c.91-.912 1.367-2.012 1.367-3.3 0-1.288-.456-2.388-1.368-3.3-.911-.91-2.01-1.367-3.299-1.367-1.288 0-2.388.456-3.3 1.368-.91.911-1.367 2.01-1.367 3.299 0 1.288.456 2.388 1.368 3.3.911.91 2.01 1.367 3.299 1.367 1.288 0 2.388-.456 3.3-1.368zm1.786-8.386c1.398 1.398 2.096 3.093 2.096 5.086 0 1.993-.698 3.688-2.096 5.086-1.398 1.398-3.093 2.096-5.086 2.096-1.993 0-3.688-.698-5.086-2.096C9.516 19.688 8.818 17.993 8.818 16c0-1.993.698-3.688 2.096-5.086C12.312 9.516 14.007 8.818 16 8.818c1.993 0 3.688.698 5.086 2.096zm3.573-3.573c.328.328.492.723.492 1.185 0 .462-.164.857-.492 1.185a1.615 1.615 0 0 1-1.185.492c-.462 0-.857-.164-1.185-.492a1.615 1.615 0 0 1-.492-1.185c0-.462.164-.857.492-1.185a1.615 1.615 0 0 1 1.185-.492c.462 0 .857.164 1.185.492zm-7.274-2.825H16l-1.395-.01a98.892 98.892 0 0 0-1.923 0 74.27 74.27 0 0 0-1.759.055c-.735.03-1.36.091-1.877.182a7.309 7.309 0 0 0-1.304.338 4.73 4.73 0 0 0-1.604 1.057 4.73 4.73 0 0 0-1.057 1.604 7.309 7.309 0 0 0-.338 1.304 14.446 14.446 0 0 0-.182 1.877 68.34 68.34 0 0 0-.054 1.76 98.892 98.892 0 0 0 0 1.922L4.516 16l-.01 1.395a98.892 98.892 0 0 0 0 1.923c.007.437.025 1.024.055 1.759.03.735.091 1.36.182 1.877.092.517.204.951.338 1.304a4.73 4.73 0 0 0 1.057 1.604 4.73 4.73 0 0 0 1.604 1.057 7.36 7.36 0 0 0 1.304.338c.516.09 1.142.151 1.877.182.735.03 1.322.048 1.76.054.437.007 1.078.007 1.922 0L16 27.484l1.395.01c.844.006 1.485.006 1.923 0a67.533 67.533 0 0 0 1.759-.055c.735-.03 1.36-.091 1.877-.182a7.309 7.309 0 0 0 1.304-.338 4.73 4.73 0 0 0 1.604-1.057 4.73 4.73 0 0 0 1.057-1.604 7.36 7.36 0 0 0 .338-1.304c.09-.516.151-1.142.182-1.877.03-.735.048-1.322.054-1.76.007-.437.007-1.078 0-1.922L27.484 16l.01-1.395c.006-.844.006-1.485 0-1.923a67.533 67.533 0 0 0-.055-1.759 14.446 14.446 0 0 0-.182-1.877 7.309 7.309 0 0 0-.338-1.304 4.73 4.73 0 0 0-1.057-1.604 4.73 4.73 0 0 0-1.604-1.057 7.309 7.309 0 0 0-1.304-.338 14.446 14.446 0 0 0-1.877-.182 67.533 67.533 0 0 0-1.76-.054 74.486 74.486 0 0 0-1.932.009zM29.91 10.22c.06 1.07.091 2.996.091 5.779s-.03 4.71-.091 5.779c-.122 2.527-.875 4.484-2.26 5.87-1.386 1.385-3.343 2.138-5.87 2.26-1.07.06-2.996.091-5.779.091s-4.71-.03-5.779-.091c-2.527-.122-4.484-.875-5.87-2.26-1.385-1.386-2.138-3.343-2.26-5.87C2.031 20.709 2 18.783 2 16s.03-4.71.091-5.779c.122-2.527.875-4.484 2.26-5.87 1.386-1.385 3.343-2.138 5.87-2.26C11.291 2.031 13.217 2 16 2s4.71.03 5.779.091c2.527.122 4.484.875 5.87 2.26 1.385 1.386 2.138 3.343 2.26 5.87z"/>
</symbol><symbol id="icon-lin" viewBox="0 0 32 32">
    <path fill-rule="evenodd" d="M6.232 24.964h4.125V12.571H6.232v12.393zM10.625 8.75c-.012-.62-.226-1.131-.643-1.536-.417-.404-.97-.607-1.66-.607-.691 0-1.254.203-1.688.607-.435.405-.652.917-.652 1.536 0 .607.211 1.116.634 1.527.423.41.973.616 1.652.616h.018c.702 0 1.268-.205 1.696-.616.429-.41.643-.92.643-1.527zm6.125 5.568v.057h-.036l.036-.057zm0 0v-1.747h-4.125c.036.786.036 4.917 0 12.393h4.125v-6.928c0-.453.042-.786.125-1 .179-.417.446-.771.804-1.063.357-.291.797-.437 1.321-.437 1.381 0 2.071.934 2.071 2.803v6.625h4.125v-7.107c0-1.833-.434-3.22-1.303-4.16-.87-.941-2.018-1.411-3.447-1.411-1.597 0-2.829.677-3.696 2.032zm12.679-7.175v17.143c0 1.416-.503 2.628-1.51 3.634-1.005 1.006-2.217 1.509-3.633 1.509H7.143c-1.417 0-2.628-.503-3.634-1.51C2.503 26.915 2 25.703 2 24.287V7.143c0-1.417.503-2.628 1.509-3.634C4.515 2.503 5.726 2 7.143 2h17.143c1.416 0 2.628.503 3.634 1.509 1.006 1.006 1.509 2.217 1.509 3.634z"/>
</symbol><symbol id="icon-location-office" viewBox="0 0 40 40">
    <g>
        <path d="M20.5 8c-4.687 0-8.5 3.785-8.5 8.438 0 1.571.439 3.105 1.269 4.436l6.747 10.794a.71.71 0 0 0 .602.332h.006a.71.71 0 0 0 .602-.342L27.8 20.76a8.38 8.38 0 0 0 1.2-4.323C29 11.785 25.187 8 20.5 8zm6.085 12.038l-5.978 9.908-6.134-9.813a6.984 6.984 0 0 1-1.066-3.695c0-3.878 3.187-7.041 7.093-7.041s7.088 3.163 7.088 7.04c0 1.272-.35 2.517-1.003 3.601z"/>
        <path d="M20.5 12.219c-2.343 0-4.25 1.892-4.25 4.219a4.229 4.229 0 0 0 4.25 4.218 4.226 4.226 0 0 0 4.25-4.218c0-2.327-1.907-4.22-4.25-4.22zm0 7.04c-1.57 0-2.843-1.267-2.843-2.822 0-1.55 1.28-2.821 2.843-2.821 1.562 0 2.838 1.27 2.838 2.822a2.829 2.829 0 0 1-2.838 2.821z"/>
    </g>
</symbol><symbol id="icon-next-arrow" viewBox="0 0 29 46">
    <title>
        next-arrow
    </title>
    <path d="M0 40.154L17.366 22.75 0 5.346 5.346 0l22.75 22.75L5.346 45.5z" fill-rule="evenodd"/>
</symbol><symbol id="icon-people" viewBox="0 0 40 40">
    <path d="M29.81 21.57a2.802 2.802 0 0 0 .784-1.945 2.816 2.816 0 0 0-2.813-2.813 2.816 2.816 0 0 0-2.812 2.813c0 .754.299 1.44.784 1.945a4.316 4.316 0 0 0-1.196 1.015 4.972 4.972 0 0 0-2.253-2.398 3.472 3.472 0 0 0 1.259-2.671C23.563 15.572 21.942 14 20 14c-1.944 0-3.563 1.572-3.563 3.516 0 1.02.444 1.983 1.259 2.671a4.972 4.972 0 0 0-2.253 2.398 4.317 4.317 0 0 0-1.196-1.015 2.802 2.802 0 0 0 .784-1.945 2.816 2.816 0 0 0-2.812-2.813 2.816 2.816 0 0 0-2.813 2.813c0 .754.3 1.44.785 1.945A4.363 4.363 0 0 0 8 25.344v.703c0 .388.315.703.703.703h22.594a.703.703 0 0 0 .703-.703v-.703a4.363 4.363 0 0 0-2.19-3.774zm-17.592-3.35c.775 0 1.406.63 1.406 1.406a1.407 1.407 0 1 1-1.406-1.406zm-2.813 7.125c0-1.576 1.288-2.907 2.813-2.907 1.524 0 2.812 1.331 2.812 2.907H9.406zM20 15.406c1.169 0 2.156.966 2.156 2.11 0 1.143-.987 2.109-2.156 2.109s-2.156-.966-2.156-2.11c0-1.143.987-2.109 2.156-2.109zm3.563 9.938h-7.125v-.797c0-1.939 1.598-3.516 3.562-3.516 1.964 0 3.563 1.577 3.563 3.516v.797zm4.218-7.125c.776 0 1.407.63 1.407 1.406a1.408 1.408 0 0 1-2.813 0c0-.775.63-1.406 1.406-1.406zm-2.812 7.125c0-1.576 1.288-2.907 2.812-2.907 1.525 0 2.813 1.331 2.813 2.907h-5.625z"/>
</symbol><symbol id="icon-phone" viewBox="0 0 40 40">
    <g>
        <path d="M30.221 25.708l-2.984-2.984a2.109 2.109 0 0 0-2.983 0l-1.357 1.357a1.597 1.597 0 0 1-2.26 0v-.001l-4.717-4.7a1.597 1.597 0 0 1 0-2.261l1.356-1.357a2.109 2.109 0 0 0 0-2.983l-2.984-2.984a2.109 2.109 0 0 0-2.984 0l-.994.995c-2.902 2.678-3.231 7.709-.09 10.85l8.153 8.137c2.84 2.84 7.644 3.115 10.85-.09l.994-.995a2.112 2.112 0 0 0 0-2.984zM12.303 10.79a.704.704 0 0 1 .995 0l2.983 2.983a.703.703 0 0 1 0 .995l-.497.497-3.978-3.978.497-.497zm7.068 17.992l-8.153-8.137a6.21 6.21 0 0 1-.388-8.345l3.964 3.964a3.002 3.002 0 0 0 .132 4.11l4.717 4.701a3.002 3.002 0 0 0 4.109.131l3.964 3.964a6.198 6.198 0 0 1-8.345-.388zm9.856-1.085l-.498.498-3.978-3.979.497-.497a.703.703 0 0 1 .995 0l2.984 2.984a.704.704 0 0 1 0 .994z"/>
        <path d="M29.89 8h-8.439c-1.163 0-2.11.947-2.11 2.11v5.626c0 1.164.947 2.11 2.11 2.11h.703v2.11c0 .625.76.939 1.2.497l2.608-2.607h3.928c1.164 0 2.11-.946 2.11-2.11V10.11C32 8.947 31.054 8 29.89 8zm.704 7.736a.704.704 0 0 1-.704.704h-4.22a.703.703 0 0 0-.497.206l-1.612 1.612v-1.115a.703.703 0 0 0-.703-.703H21.45a.704.704 0 0 1-.703-.704V10.11c0-.388.315-.703.703-.703h8.44c.387 0 .703.315.703.703v5.626z"/>
        <path d="M28.484 10.813h-5.626a.703.703 0 1 0 0 1.407h5.626a.703.703 0 1 0 0-1.407zm-2.814 2.814h-2.812a.703.703 0 1 0 0 1.406h2.813a.703.703 0 1 0 0-1.406z"/>
    </g>
</symbol><symbol id="icon-prev-arrow" viewBox="0 0 29 46">
    <title>
        prev-arrow
    </title>
    <path d="M29 5.846L11.634 23.25 29 40.654 23.654 46 .904 23.25 23.654.5z" fill-rule="evenodd"/>
</symbol><symbol id="icon-search" viewBox="0 0 20 20">
    <title>
        search
    </title>
    <path d="M14.294 12.579h-.903l-.32-.31a7.4 7.4 0 0 0 1.795-4.836 7.433 7.433 0 1 0-7.433 7.433 7.4 7.4 0 0 0 4.837-1.796l.309.32v.904L18.296 20 20 18.296l-5.706-5.717zm-6.861 0a5.139 5.139 0 0 1-5.146-5.146 5.139 5.139 0 0 1 5.146-5.146 5.139 5.139 0 0 1 5.146 5.146 5.139 5.139 0 0 1-5.146 5.146z" fill-rule="nonzero"/>
</symbol><symbol id="icon-yt" viewBox="0 0 32 32">
    <path fill-rule="evenodd" d="M19.65 21.438v3.296c0 .698-.201 1.047-.605 1.047-.238 0-.47-.114-.698-.343v-4.704c.227-.229.46-.343.698-.343.404 0 .605.349.605 1.047zm5.246.015v.719H23.5v-.719c0-.708.233-1.062.699-1.062.465 0 .698.354.698 1.062zM9.904 18.047h1.66v-1.469h-4.84v1.469h1.63v8.89h1.551v-8.89zm4.47 8.89h1.381V19.22h-1.381v5.906c-.31.438-.605.656-.885.656-.186 0-.295-.11-.326-.328-.01-.031-.015-.213-.015-.547V19.22h-1.381v6.11c0 .51.04.89.124 1.14.124.385.424.578.9.578.496 0 1.024-.318 1.583-.953v.843zm6.658-2.312v-3.078c0-.76-.047-1.276-.14-1.547-.176-.583-.543-.875-1.102-.875-.517 0-.998.281-1.443.844v-3.39h-1.381v10.358h1.38v-.75c.466.573.948.86 1.444.86.559 0 .926-.287 1.102-.86.093-.28.14-.802.14-1.562zm5.245-.156v-.203h-1.412c0 .53-.01.849-.031.953-.072.375-.28.562-.62.562-.477 0-.715-.36-.715-1.078v-1.36h2.778v-1.609c0-.823-.14-1.427-.419-1.812-.403-.531-.952-.797-1.645-.797-.703 0-1.257.266-1.66.797-.29.385-.435.99-.435 1.812v2.703c0 .823.15 1.428.45 1.813.404.531.962.797 1.676.797.745 0 1.304-.276 1.676-.828.187-.282.295-.563.326-.844.021-.094.031-.396.031-.906zm-9.436-14.266V6.922c0-.719-.222-1.078-.667-1.078-.445 0-.667.36-.667 1.078v3.281c0 .73.222 1.094.667 1.094.445 0 .667-.365.667-1.094zM28 21.938c0 2.437-.135 4.26-.404 5.468a2.972 2.972 0 0 1-.9 1.547 2.706 2.706 0 0 1-1.583.719C23.21 29.89 20.34 30 16.5 30c-3.839 0-6.71-.11-8.613-.328a2.742 2.742 0 0 1-1.591-.719 2.86 2.86 0 0 1-.892-1.547C5.134 26.24 5 24.416 5 21.938c0-2.438.135-4.26.404-5.47.144-.614.444-1.13.9-1.546a2.806 2.806 0 0 1 1.598-.735c1.894-.208 4.76-.312 8.598-.312 3.839 0 6.71.104 8.613.313.6.072 1.13.317 1.591.734.46.417.758.932.892 1.547.27 1.166.404 2.99.404 5.468zM12.511 2h1.583l-1.877 6.234v4.235h-1.552V8.234c-.145-.77-.46-1.875-.947-3.312A131.13 131.13 0 0 1 8.709 2h1.645l1.102 4.11L12.511 2zm5.743 5.203v2.734c0 .844-.145 1.459-.435 1.844-.393.532-.941.797-1.645.797-.693 0-1.236-.265-1.63-.797-.29-.396-.434-1.01-.434-1.844V7.204c0-.833.145-1.443.435-1.828.393-.531.936-.797 1.63-.797.703 0 1.251.266 1.644.797.29.385.435.995.435 1.828zm5.199-2.531v7.797H22.04v-.86c-.548.646-1.08.97-1.598.97-.476 0-.781-.194-.916-.579-.082-.25-.124-.64-.124-1.172V4.672h1.412v5.734c0 .344.006.526.016.547.031.23.14.344.326.344.28 0 .574-.224.884-.672V4.672h1.413z"/>
</symbol></svg>