<svg xmlns="http://www.w3.org/2000/svg" width="32" height="32" viewBox="0 0 32 32">
    <g fill="none">
        <rect width="27.983" height="27.983" x="2" y="2" fill="#61A8DE" rx="13.992"/>
        <path fill="#FFF" d="M22.78 9.062l-17.376 6.77c-.563.218-.53 1.026.05 1.197l4.416 1.303 1.648 5.227a.758.758 0 0 0 1.265.303l2.283-2.33 4.48 3.286a.935.935 0 0 0 1.467-.562l2.967-14.178a.894.894 0 0 0-1.2-1.016zm-2.178 3.147l-8.072 7.135a.433.433 0 0 0-.143.276l-.31 2.761c-.011.09-.137.102-.164.016l-1.279-4.119a.433.433 0 0 1 .186-.496l9.532-5.91c.219-.135.443.166.25.337z"/>
    </g>
</svg>
